<svg xmlns:xlink="http://www.w3.org/1999/xlink" xmlns="http://www.w3.org/2000/svg" width="170" height="42" viewBox="0 0 170 42" fill="none">
<g clip-path="url(#clip0_105_1677)">
<path d="M166.84 36.2872C166.099 36.2943 165.392 36.593 164.872 37.1181C164.352 37.6432 164.062 38.352 164.066 39.0893C164.069 39.8266 164.366 40.5325 164.891 41.0526C165.416 41.5727 166.126 41.8647 166.867 41.8647C167.607 41.8647 168.318 41.5727 168.843 41.0526C169.368 40.5325 169.664 39.8266 169.668 39.0893C169.672 38.352 169.382 37.6432 168.862 37.1181C168.342 36.593 167.634 36.2943 166.894 36.2872H166.84ZM166.84 41.5454C166.354 41.5534 165.877 41.4179 165.468 41.1559C165.06 40.894 164.739 40.5173 164.546 40.0736C164.352 39.6299 164.295 39.1391 164.382 38.6632C164.469 38.1874 164.696 37.7478 165.033 37.4002C165.371 37.0525 165.805 36.8124 166.28 36.7101C166.755 36.6079 167.249 36.6481 167.701 36.8258C168.153 37.0034 168.542 37.3104 168.818 37.708C169.095 38.1056 169.247 38.576 169.255 39.0596V39.1006C169.269 39.735 169.029 40.3488 168.588 40.807C168.147 41.2652 167.541 41.5304 166.904 41.5441H166.84M156.087 35.5253H150V26.0352C150 23.7722 149.959 20.859 146.834 20.859C143.664 20.859 143.179 23.3246 143.179 25.8704V35.5246H137.092V16.0092H142.935V18.6762H143.017C143.602 17.6807 144.447 16.8618 145.462 16.3067C146.477 15.7516 147.625 15.481 148.782 15.5238C154.952 15.5238 156.089 19.5637 156.089 24.8194L156.087 35.5253ZM130.223 13.3416C129.525 13.3417 128.842 13.1356 128.261 12.7492C127.68 12.3629 127.227 11.8138 126.96 11.1713C126.692 10.5287 126.622 9.82166 126.758 9.13947C126.894 8.45729 127.231 7.83062 127.725 7.33872C128.219 6.84682 128.848 6.51178 129.533 6.37597C130.218 6.24016 130.929 6.30967 131.574 6.57572C132.22 6.84177 132.771 7.29241 133.16 7.87065C133.548 8.44889 133.755 9.12876 133.755 9.82429C133.755 10.2861 133.664 10.7434 133.487 11.1701C133.309 11.5968 133.049 11.9845 132.721 12.3111C132.393 12.6377 132.004 12.8968 131.575 13.0736C131.147 13.2504 130.687 13.3415 130.223 13.3416M133.267 35.5253H127.174V16.0092H133.267V35.5253ZM159.121 0.680764H124.115C123.32 0.671837 122.555 0.977317 121.986 1.53008C121.418 2.08284 121.093 2.83765 121.084 3.62866V38.624C121.093 39.4154 121.417 40.1707 121.986 40.7241C122.554 41.2774 123.32 41.5835 124.115 41.5751H159.121C159.918 41.585 160.686 41.2798 161.257 40.7265C161.827 40.1732 162.154 39.417 162.165 38.624V3.62613C162.154 2.83356 161.827 2.07789 161.256 1.52514C160.685 0.972394 159.918 0.667786 159.121 0.678239M104.516 20.7195C101.473 20.7195 99.6466 22.7426 99.6466 25.6905C99.6466 28.6384 101.472 30.6634 104.516 30.6634C107.56 30.6634 109.39 28.6435 109.39 25.6905C109.39 22.7376 107.563 20.7195 104.516 20.7195M114.994 35.5139H109.39V32.9258H109.307C108.604 33.8672 107.692 34.6343 106.643 35.1673C105.593 35.7003 104.434 35.9848 103.256 35.9987C97.4071 35.9987 93.5545 31.7965 93.5545 25.854C93.5545 20.3963 96.9638 15.3849 102.568 15.3849C105.087 15.3849 107.44 16.071 108.821 17.973H108.901V6.72363H114.993L114.994 35.5139ZM85.7391 23.49C85.7507 22.9984 85.662 22.5095 85.4783 22.053C85.2946 21.5965 85.0197 21.1819 84.6703 20.8343C84.3208 20.4867 83.9042 20.2133 83.4455 20.0307C82.9869 19.8481 82.4958 19.7601 82.0019 19.772C80.9384 19.7061 79.8914 20.059 79.0868 20.7545C78.2821 21.45 77.7842 22.4324 77.7005 23.49H85.7391ZM90.8953 32.138C89.8838 33.3592 88.6121 34.341 87.1725 35.0126C85.7328 35.6841 84.1611 36.0285 82.5713 36.0208C76.4843 36.0208 71.6109 31.9758 71.6109 25.712C71.6109 19.4482 76.4837 15.4051 82.5713 15.4051C88.2607 15.4051 91.8286 19.445 91.8286 25.712V27.612H77.7005C77.8764 28.6896 78.4375 29.6676 79.2805 30.3658C80.1235 31.064 81.1916 31.4353 82.2879 31.4115C83.1543 31.4061 84.0056 31.1851 84.7643 30.7686C85.523 30.3521 86.165 29.7532 86.6318 29.0266L90.8953 32.138ZM30.3843 16.0041H36.2297V18.6711H36.3128C36.8967 17.6753 37.7412 16.856 38.7564 16.3008C39.7715 15.7456 40.919 15.4752 42.0764 15.5187C48.249 15.5187 49.3852 19.5618 49.3852 24.8144V35.5164H43.2982V26.0282C43.2982 23.7633 43.2564 20.8521 40.1279 20.8521C36.964 20.8521 36.4758 23.3183 36.4758 25.8635V35.5139H30.3888L30.3843 16.0041ZM52.4718 6.72553H58.5588V23.9363L65.4574 15.9934H72.9203L64.9311 25.0284L72.7523 35.5259H65.1017L58.64 25.8793H58.5601V35.5246H52.4731L52.4718 6.72553ZM20.9223 16.0022H27.0092V35.5177H20.9223V16.0022ZM23.9657 6.30007C24.6641 6.30019 25.3467 6.50647 25.9273 6.89282C26.5079 7.27918 26.9604 7.82825 27.2276 8.47061C27.4947 9.11297 27.5646 9.81978 27.4283 10.5017C27.2919 11.1835 26.9556 11.8098 26.4617 12.3014C25.9679 12.793 25.3387 13.1277 24.6538 13.2633C23.9688 13.3989 23.2589 13.3293 22.6137 13.0632C21.9685 12.7971 21.417 12.3465 21.0291 11.7684C20.6411 11.1903 20.434 10.5107 20.434 9.81545C20.434 9.35375 20.5254 8.89657 20.7029 8.47003C20.8804 8.04348 21.1405 7.65592 21.4685 7.32948C21.7964 7.00304 22.1858 6.74411 22.6143 6.56748C23.0427 6.39085 23.502 6.29999 23.9657 6.30007M0.0546875 6.72994H6.39085V29.7071H18.121V35.5284H0.0546875V6.72994ZM167.284 39.2527C167.389 39.2538 167.492 39.2335 167.588 39.1931C167.684 39.1527 167.771 39.0931 167.843 39.018C167.915 38.9429 167.97 38.8539 168.006 38.7565C168.042 38.659 168.058 38.5553 168.052 38.4517C168.052 37.8836 167.707 37.6121 167.001 37.6121H165.86V40.5865H166.289V39.29H166.816L166.828 39.3058L167.647 40.5865H168.106L167.225 39.2609L167.284 39.2527ZM166.788 38.9548H166.29V37.9492H166.921C167.247 37.9492 167.618 38.0022 167.618 38.4271C167.618 38.9156 167.242 38.9548 166.785 38.9548" fill="#7A8487"/>
</g>
<defs>
<clipPath id="clip0_105_1677">
<rect width="169.621" height="41.2034" fill="white" transform="translate(0.0546875 0.669556)"/>
</clipPath>
</defs>
</svg>