<svg xmlns:xlink="http://www.w3.org/1999/xlink" xmlns="http://www.w3.org/2000/svg" width="57" height="57" viewBox="0 0 57 57" fill="none">
<g clip-path="url(#clip0_105_1675)">
<path d="M0.144531 8.95631H8.73635V32.004C8.73635 35.6594 10.3929 37.835 11.7402 38.7405C10.3376 39.9664 6.08591 41.0486 2.88331 38.4313C1.00592 36.8852 0.144531 34.3121 0.144531 31.9157V8.95631ZM53.8047 28.1167V25.6872H56.4331V17.2058H53.5507C52.4353 12.0927 47.8965 8.2937 42.4741 8.2937C36.2235 8.2937 31.1325 13.3737 31.1325 19.6353V39.4252C32.8994 39.6792 35.0419 39.3921 36.842 37.8791C38.7304 36.3331 39.5807 33.771 39.5807 31.3635V30.6236H43.8656V22.1422H39.5807V19.5691C39.5807 15.748 45.3454 15.748 45.3454 19.5691V28.0836C45.3454 34.3342 50.4254 39.4252 56.6871 39.4252V30.977C55.0858 30.977 53.8047 29.6849 53.8047 28.1167V28.1167ZM21.3038 17.1837V29.6628C21.3038 31.3635 18.6755 31.3635 18.6755 29.6628V17.1837H10.1941V31.8384C10.1941 34.4667 11.0776 37.8018 15.1636 38.8951C19.2497 39.9774 21.5909 37.7245 21.5909 37.7245C21.359 39.2044 19.9896 40.2977 17.7368 40.5185C16.025 40.6952 13.8495 40.121 12.7672 39.6571V47.4207C15.5391 48.249 18.4546 48.503 21.3369 47.9397C26.5384 46.9348 29.8183 42.5947 29.8183 36.8079V17.1285H21.3038V17.1837V17.1837Z" fill="#7A8487"/>
</g>
<defs>
<clipPath id="clip0_105_1675">
<rect width="56.5425" height="56.5425" fill="white" transform="translate(0.144531)"/>
</clipPath>
</defs>
</svg>