<svg xmlns:xlink="http://www.w3.org/1999/xlink" xmlns="http://www.w3.org/2000/svg" width="203" height="31" viewBox="0 0 203 31" fill="none">
<g clip-path="url(#clip0_105_1687)">
<path d="M124.944 0.910783C124.908 0.658703 125.092 0.398221 125.357 0.414186C126.811 0.409144 128.266 0.406623 129.722 0.406623C129.783 0.398951 129.844 0.404684 129.902 0.423419C129.96 0.442154 130.014 0.473438 130.059 0.515075C130.103 0.556712 130.139 0.607693 130.162 0.66444C130.185 0.721187 130.195 0.782324 130.192 0.843562C130.203 2.32159 130.192 3.79962 130.197 5.27849C131.746 5.27849 133.294 5.27176 134.843 5.27849C135.078 5.26672 135.345 5.42301 135.321 5.68938V9.22942C135.324 9.28439 135.315 9.33941 135.296 9.39087C135.276 9.44232 135.246 9.48903 135.207 9.52793C135.168 9.56683 135.122 9.59703 135.071 9.61654C135.019 9.63606 134.964 9.64444 134.91 9.64115C133.339 9.64703 131.768 9.64115 130.197 9.64115V20.1445C130.189 21.1351 130.222 22.1477 130.532 23.0972C130.759 23.7954 131.237 24.4214 131.895 24.76C132.861 25.2827 133.993 25.3062 135.065 25.2928C135.341 25.2726 135.634 25.4751 135.612 25.7768V29.3059C135.624 29.425 135.591 29.5442 135.519 29.6401C135.448 29.7359 135.343 29.8014 135.226 29.8235C133.228 29.8764 131.162 29.8386 129.284 29.0673C127.931 28.5337 126.753 27.5396 126.06 26.2498C125.195 24.6559 124.992 22.7921 124.944 20.9931V0.910783ZM51.9264 4.82642C53.7064 4.79533 55.5064 4.80373 57.2513 5.20202C58.7986 5.54653 60.3233 6.21622 61.4464 7.36571C62.4422 8.3463 63.0774 9.64031 63.4506 10.9788C63.9527 12.7048 64.1092 14.508 64.1628 16.2986C64.1921 18.4328 64.1854 20.5839 63.7912 22.6905C63.5234 24.0458 63.1418 25.4113 62.3811 26.5784C61.7101 27.6309 60.7707 28.4838 59.6605 29.0488C58.0161 29.9067 56.1458 30.1924 54.3114 30.2747C52.3825 30.3377 50.4268 30.3192 48.5372 29.8714C47.138 29.5437 45.7756 28.9345 44.7111 27.9522C43.5898 26.9263 42.8701 25.5247 42.4743 24.0685C41.7906 21.625 41.7495 19.0622 41.7813 16.5431C41.824 14.5424 41.9947 12.5191 42.6056 10.6024C43.0015 9.34201 43.6643 8.14883 44.6283 7.24135C45.5271 6.37251 46.6618 5.78433 47.8468 5.42805C49.1673 5.02304 50.5506 4.87096 51.9264 4.82642M51.267 9.46553C50.2101 9.57476 49.1037 9.92684 48.4041 10.7755C47.5782 11.7746 47.3681 13.1114 47.2543 14.3651C47.0055 16.5382 47.0111 18.7331 47.2711 20.9049C47.3924 22.1586 47.6368 23.5097 48.5263 24.4618C49.3506 25.3516 50.6076 25.6096 51.7666 25.6835C52.7604 25.7514 53.7582 25.734 54.7491 25.6314C55.6696 25.5197 56.6253 25.2457 57.3082 24.5819C58.0797 23.85 58.4069 22.7829 58.5752 21.7578C58.9015 19.3891 58.9852 16.9817 58.7208 14.6029C58.6019 13.2929 58.4304 11.8855 57.5835 10.8217C56.9048 9.95793 55.7993 9.58905 54.7449 9.47057C53.5889 9.34874 52.4234 9.34705 51.267 9.46553V9.46553ZM111.839 4.82558C113.901 4.75752 115.958 4.99363 117.99 5.32974C118.387 5.41377 118.803 5.44066 119.18 5.60283C119.373 5.69274 119.404 5.92969 119.402 6.12043V9.40167C119.397 9.5462 119.368 9.72265 119.235 9.79996C119.036 9.91927 118.798 9.85121 118.586 9.8218C116.487 9.44452 114.363 9.13615 112.226 9.17312C111.268 9.20841 110.285 9.28487 109.394 9.66887C108.839 9.90583 108.328 10.3251 108.131 10.9141C107.906 11.5998 107.993 12.4317 108.511 12.9661C109.029 13.5005 109.732 13.8114 110.416 14.0828C111.94 14.655 113.476 15.1953 114.991 15.7885C116.469 16.396 117.976 17.0548 119.159 18.1631C120.156 19.1177 120.699 20.4713 120.846 21.8309C120.996 23.3182 120.812 24.876 120.104 26.2087C119.467 27.4245 118.409 28.3858 117.198 29.0084C115.643 29.8176 113.887 30.152 112.152 30.2562C109.871 30.3749 107.585 30.1701 105.361 29.6479C104.802 29.5017 104.234 29.3714 103.705 29.137C103.428 29.0051 103.401 28.6639 103.398 28.395C103.398 27.359 103.392 26.3229 103.398 25.2861C103.386 25.0567 103.506 24.7819 103.768 24.7819C104.03 24.7819 104.294 24.9096 104.556 24.9785C106.636 25.586 108.803 25.9373 110.973 25.8936C111.922 25.8734 112.881 25.7902 113.79 25.5037C114.37 25.3129 114.941 25.0197 115.335 24.5391C115.824 23.9509 115.943 23.1106 115.77 22.3796C115.625 21.7771 115.155 21.3192 114.648 21.0007C113.924 20.5528 113.119 20.2629 112.323 19.9756C110.929 19.4714 109.532 18.9673 108.152 18.4312C106.852 17.906 105.536 17.296 104.553 16.2683C103.561 15.218 103.061 13.7736 103.01 12.3418C102.905 10.7074 103.351 9.01935 104.372 7.72786C105.192 6.65316 106.38 5.90868 107.65 5.48687C108.997 5.02809 110.424 4.87432 111.839 4.82558V4.82558ZM4.24131 6.35318C5.97358 5.28017 8.0364 4.88692 10.0448 4.82138C11.6348 4.82138 13.2433 4.76508 14.8148 5.06506C16.4275 5.36923 18.1212 5.93137 19.2233 7.22034C19.928 6.40276 20.882 5.8423 21.8929 5.49359C23.2176 5.02809 24.631 4.86003 26.0286 4.8197C27.3717 4.82642 28.7241 4.7676 30.0571 4.98103C32.0371 5.27596 34.0422 6.02044 35.4422 7.50939C36.2883 8.39503 36.8306 9.54283 37.0615 10.7427C37.2774 11.7637 37.3226 12.8115 37.3469 13.8517V28.8085C37.341 29.0471 37.3737 29.2983 37.2858 29.5269C37.2497 29.6202 37.1854 29.7 37.102 29.7549C37.0186 29.8099 36.9202 29.8374 36.8205 29.8336C35.3979 29.8336 33.9753 29.8403 32.5526 29.8336C32.2405 29.8386 32.0681 29.5084 32.0932 29.2294V16.7044C32.0932 15.3331 32.0932 13.9584 31.9643 12.5922C31.8806 11.725 31.4982 10.8629 30.7927 10.3352C29.7735 9.56552 28.4412 9.42772 27.2002 9.39747C25.9298 9.38991 24.5925 9.46553 23.4561 10.0949C23.057 10.3181 22.7133 10.6289 22.4506 11.0041C22.1879 11.3794 22.013 11.8093 21.9389 12.2619C21.7866 13.2627 21.8 14.2752 21.7607 15.2793V29.1437C21.7874 29.4487 21.6134 29.8369 21.2653 29.8353C19.8669 29.8403 18.4685 29.8353 17.0701 29.8353C16.8911 29.8437 16.6902 29.7823 16.5948 29.6193C16.4701 29.4269 16.5178 29.1866 16.5111 28.9715C16.5145 24.5735 16.5145 20.1761 16.5111 15.7793C16.4752 14.6449 16.4936 13.5047 16.3438 12.3779C16.2216 11.4906 15.7237 10.6503 14.9529 10.1831C13.8157 9.48149 12.4307 9.39747 11.1327 9.39747C9.92935 9.42016 8.64981 9.53779 7.61798 10.2268C6.89913 10.6965 6.4464 11.5057 6.3284 12.3493C6.17275 13.4862 6.19535 14.6365 6.15518 15.7835V28.9807C6.15518 29.2261 6.18865 29.5185 5.9945 29.7059C5.87985 29.8403 5.69324 29.8445 5.53173 29.8437C4.16014 29.8395 2.78855 29.8437 1.4178 29.8437C1.35029 29.8446 1.28331 29.8315 1.22109 29.8052C1.15886 29.7789 1.10275 29.7399 1.05628 29.6907C1.00981 29.6415 0.974001 29.5832 0.951099 29.5194C0.928198 29.4557 0.918705 29.3878 0.923221 29.3202V14.271C0.910668 12.8064 0.97929 11.315 1.41194 9.90583C1.8722 8.4194 2.92495 7.15732 4.24131 6.35318V6.35318ZM141.855 5.44822C143.704 5.09848 145.575 4.89005 147.455 4.82474C149.513 4.78525 151.601 4.8676 153.595 5.42385C155.056 5.84903 156.464 6.58426 157.508 7.71526C158.386 8.65635 158.93 9.86886 159.211 11.1183C159.435 12.1819 159.534 13.2683 159.505 14.355V21.6654C159.458 23.319 159.276 25.034 158.476 26.5103C157.833 27.7102 156.739 28.611 155.519 29.1815C153.742 30.0218 151.749 30.3335 149.795 30.2739C147.894 30.31 145.961 30.1898 144.143 29.5899C142.751 29.1404 141.424 28.374 140.486 27.2288C139.573 26.1431 139.086 24.7466 138.959 23.3434C138.825 21.7721 138.959 20.1361 139.645 18.6959C140.259 17.3697 141.288 16.2804 142.573 15.5927C144.415 14.5996 146.549 14.266 148.622 14.287C150.521 14.2595 152.416 14.4415 154.275 14.8298C154.269 13.8778 154.275 12.9081 154.017 11.9838C153.86 11.3747 153.524 10.8273 153.052 10.4125C152.273 9.71929 151.211 9.48822 150.207 9.35714C147.505 9.04792 144.779 9.32857 142.101 9.71845C141.91 9.73273 141.682 9.77139 141.536 9.61594C141.409 9.46049 141.439 9.24286 141.424 9.05632C141.43 8.07489 141.415 7.09178 141.432 6.11035C141.421 5.82886 141.532 5.48771 141.85 5.43814M146.26 18.9521C145.578 19.2042 144.966 19.6798 144.608 20.3226C143.892 21.6107 143.924 23.3929 144.933 24.5197C145.579 25.2331 146.523 25.5894 147.443 25.7583C148.41 25.944 149.4 25.8675 150.379 25.8793C151.442 25.8238 152.589 25.6079 153.391 24.8474C153.977 24.3055 154.157 23.4812 154.217 22.7165C154.3 21.5032 154.268 20.2865 154.273 19.0714C152.6 18.6362 150.858 18.5295 149.135 18.5379C148.17 18.5631 147.179 18.611 146.265 18.9597L146.26 18.9521ZM171.353 4.92809C172.892 4.73651 174.449 4.85247 175.991 4.81718C176.251 4.78273 176.595 4.89196 176.613 5.20202C176.631 6.43301 176.613 7.66568 176.62 8.89919C176.633 9.11682 176.477 9.34537 176.249 9.35209C175.1 9.38402 173.948 9.31176 172.802 9.41595C171.974 9.49998 171.119 9.69828 170.449 10.2209C169.84 10.6898 169.499 11.4292 169.378 12.1762C169.249 12.9795 169.245 13.7971 169.21 14.6088C169.164 19.5664 169.205 24.5239 169.187 29.4815C169.194 29.7336 168.936 29.8689 168.712 29.8453C167.259 29.8395 165.807 29.8504 164.355 29.8395C164.117 29.8512 163.941 29.6227 163.96 29.3975C163.957 24.4427 163.957 19.4879 163.96 14.5332C163.951 12.9367 163.985 11.3082 164.48 9.77811C164.938 8.41846 165.83 7.24832 167.017 6.44898C168.303 5.57174 169.825 5.11631 171.353 4.92809V4.92809ZM66.9587 5.78432C66.9514 5.71892 66.9585 5.65272 66.9796 5.59039C67.0006 5.52806 67.035 5.47112 67.0803 5.4236C67.1256 5.37607 67.1808 5.33912 67.2419 5.31536C67.303 5.29159 67.3686 5.28158 67.434 5.28605C68.8926 5.2768 70.3529 5.28605 71.8124 5.28605C72.0408 5.28605 72.3404 5.32134 72.4358 5.56922C72.5195 5.83222 72.4978 6.11371 72.527 6.38596C72.9137 11.3015 74.1714 16.1171 75.9581 20.7007C76.5012 22.0964 77.0979 23.4736 77.7774 24.8096C78.6756 23.0113 79.4629 21.1592 80.1348 19.2639C81.6411 15.118 82.6738 10.7839 83.0228 6.37923C83.052 6.10279 83.0311 5.8171 83.1198 5.55073C83.2261 5.29361 83.5382 5.28017 83.7784 5.28101C85.2061 5.28689 86.6346 5.27596 88.0631 5.28689C88.2966 5.27512 88.5602 5.42385 88.5417 5.68853C88.4338 9.14287 87.6748 12.5451 86.6522 15.8347C85.1734 20.5335 83.1156 25.0281 80.8177 29.3748C80.7013 29.6269 80.472 29.8495 80.1775 29.8378C78.5869 29.8411 76.9969 29.8411 75.4075 29.8378C75.2646 29.845 75.1227 29.8099 74.9994 29.7371C74.8761 29.6642 74.7768 29.5567 74.7137 29.4277C72.3321 24.96 70.1002 20.3722 68.67 15.497C67.7382 12.3342 67.1642 9.07611 66.9587 5.78432V5.78432ZM93.0925 5.32218C93.716 5.23311 94.3478 5.30453 94.9813 5.28185C95.8516 5.28689 96.7227 5.27176 97.5931 5.28857C97.824 5.27764 98.0952 5.43646 98.0609 5.69946C98.0575 7.82813 98.0648 9.95681 98.0826 12.0855V29.3252C98.1077 29.5773 97.9437 29.8588 97.6642 29.8361C96.183 29.8361 94.7009 29.8437 93.2205 29.8361C92.9511 29.8445 92.8021 29.563 92.8323 29.3227C92.8356 21.4477 92.8356 13.5725 92.8323 5.69694C92.8277 5.61425 92.8508 5.53242 92.898 5.46449C92.9452 5.39657 93.0137 5.34646 93.0925 5.32218V5.32218ZM187.523 5.86835C187.504 5.7467 187.531 5.62237 187.597 5.51882C187.663 5.41527 187.765 5.33965 187.883 5.30621C188.099 5.26084 188.322 5.28101 188.545 5.27764C189.782 5.28269 191.018 5.27176 192.255 5.28269C192.516 5.28269 192.772 5.50956 192.757 5.7818V20.2041C191.015 20.1781 189.271 20.2041 187.529 20.1932H178.429C178.178 20.2092 177.916 19.9983 177.927 19.7344V15.4381C177.923 15.372 177.934 15.3059 177.958 15.2442C177.981 15.1824 178.018 15.1264 178.065 15.0797C178.111 15.033 178.167 14.9967 178.229 14.9732C178.291 14.9497 178.356 14.9395 178.422 14.9432H187.53C187.525 11.9183 187.523 8.89331 187.523 5.86835V5.86835Z" fill="#7A8487"/>
<path d="M192.759 14.9433H201.866C201.931 14.9398 201.997 14.9501 202.058 14.9735C202.119 14.997 202.175 15.033 202.222 15.0792C202.268 15.1255 202.305 15.1811 202.329 15.2423C202.352 15.3035 202.363 15.3691 202.361 15.4348V19.737C202.37 20.0008 202.11 20.2109 201.859 20.1941C198.827 20.1941 195.795 20.2033 192.763 20.1882C192.76 18.441 192.759 16.6927 192.759 14.9433V14.9433ZM187.528 20.1975C189.271 20.2042 191.015 20.1823 192.757 20.2084C192.754 23.2457 192.754 26.2829 192.757 29.3202C192.762 29.3834 192.755 29.447 192.735 29.5072C192.715 29.5675 192.684 29.6232 192.643 29.6713C192.602 29.7193 192.552 29.7587 192.495 29.7871C192.439 29.8156 192.377 29.8325 192.314 29.837C190.892 29.8429 189.469 29.837 188.046 29.837C187.977 29.842 187.908 29.832 187.843 29.8077C187.778 29.7833 187.719 29.7452 187.67 29.696C187.621 29.6467 187.583 29.5875 187.558 29.5222C187.534 29.4569 187.524 29.3872 187.529 29.3177C187.527 26.2793 187.527 23.2392 187.528 20.1975V20.1975Z" fill="#7A8487"/>
</g>
<defs>
<clipPath id="clip0_105_1687">
<rect width="201.454" height="30.0179" fill="white" transform="translate(0.910156 0.374023)"/>
</clipPath>
</defs>
</svg>