<svg xmlns:xlink="http://www.w3.org/1999/xlink" xmlns="http://www.w3.org/2000/svg" width="79" height="51" viewBox="0 0 79 51" fill="none">
<g clip-path="url(#clip0_105_1669)">
<path d="M6.39627 1.76111H73.4253C75.6354 1.76111 77.4271 3.55278 77.4271 5.76284V44.8798C77.4271 47.09 75.6354 48.8815 73.4253 48.8815H6.39627C4.18611 48.8815 2.39453 47.09 2.39453 44.8798V5.76284C2.39453 3.55278 4.18611 1.76111 6.39627 1.76111Z" stroke="#7A8487" stroke-width="2.98206"/>
<path d="M17.7344 17.2529C16.8941 16.6753 15.7977 16.3857 14.445 16.3857H9.20812C8.79344 16.3857 8.56434 16.5931 8.52082 17.0075L6.3934 30.3616C6.37129 30.4928 6.4041 30.6127 6.49154 30.7218C6.57848 30.831 6.68782 30.8853 6.81878 30.8853H9.30626C9.74255 30.8853 9.98235 30.6784 10.0264 30.2636L10.6154 26.6634C10.6369 26.4889 10.7137 26.3471 10.8446 26.2378C10.9755 26.1288 11.1392 26.0574 11.3355 26.0247C11.5319 25.9923 11.7171 25.976 11.892 25.976C12.0664 25.976 12.2735 25.987 12.5139 26.0087C12.7538 26.0305 12.9066 26.0411 12.9721 26.0411C14.8486 26.0411 16.3214 25.5124 17.3908 24.4538C18.4596 23.3957 18.9947 21.9284 18.9947 20.0515C18.9947 18.7643 18.5743 17.8315 17.7344 17.2529V17.2529ZM15.0342 21.2627C14.9248 22.0265 14.6415 22.5281 14.1833 22.7682C13.725 23.0086 13.0704 23.1282 12.2195 23.1282L11.1394 23.1609L11.6959 19.6587C11.7393 19.4189 11.8811 19.2988 12.1213 19.2988H12.7433C13.6157 19.2988 14.2489 19.4246 14.6417 19.6751C15.0342 19.9262 15.1652 20.4555 15.0342 21.2627ZM72.9998 16.3857H70.578C70.3373 16.3857 70.1957 16.5058 70.1524 16.7459L68.0249 30.3617L67.9921 30.4271C67.9921 30.5368 68.0357 30.6399 68.1233 30.7382C68.21 30.8362 68.3196 30.8853 68.4504 30.8853H70.6107C71.0248 30.8853 71.254 30.6784 71.2981 30.2636L73.4257 16.8765V16.8439C73.4256 16.5385 73.2833 16.3857 72.9998 16.3857ZM43.7388 21.6551C43.7388 21.5463 43.6949 21.4424 43.6082 21.3444C43.5207 21.2462 43.4222 21.1969 43.3136 21.1969H40.7932C40.5527 21.1969 40.3564 21.3066 40.2041 21.5242L36.7346 26.6304L35.2945 21.7208C35.185 21.3719 34.9452 21.1969 34.5745 21.1969H32.1193C32.01 21.1969 31.9119 21.2461 31.8251 21.3444C31.7376 21.4424 31.6942 21.5464 31.6942 21.6551C31.6942 21.6991 31.907 22.3425 32.3323 23.5863C32.7577 24.8303 33.2159 26.1723 33.7069 27.6125C34.1979 29.0524 34.4542 29.8166 34.4761 29.9033C32.6867 32.3474 31.7923 33.6566 31.7923 33.8309C31.7923 34.1148 31.934 34.2565 32.2178 34.2565H34.7381C34.978 34.2565 35.1743 34.1476 35.3272 33.9293L43.6736 21.8842C43.7171 21.8409 43.7388 21.7649 43.7388 21.6551V21.6551ZM67.2067 21.1969H64.7189C64.4132 21.1969 64.2283 21.5571 64.1629 22.2772C63.5949 21.4047 62.5591 20.9678 61.0532 20.9678C59.4822 20.9678 58.1453 21.5571 57.0438 22.7354C55.9418 23.9137 55.391 25.2996 55.391 26.8923C55.391 28.18 55.7673 29.2054 56.5199 29.9688C57.2727 30.7331 58.282 31.1144 59.5478 31.1144C60.1805 31.1144 60.8242 30.9833 61.4788 30.7217C62.1334 30.4598 62.6457 30.1109 63.0173 29.6743C63.0173 29.6962 62.995 29.7943 62.9517 29.9687C62.9078 30.1436 62.8863 30.2748 62.8863 30.3615C62.8863 30.711 63.0277 30.8851 63.3119 30.8851H65.5704C65.9843 30.8851 66.2248 30.6782 66.2901 30.2634L67.6322 21.7207C67.6538 21.5897 67.6209 21.4698 67.534 21.3606C67.4464 21.2517 67.3376 21.1969 67.2067 21.1969V21.1969ZM62.9353 27.645C62.379 28.1906 61.708 28.4632 60.9225 28.4632C60.2895 28.4632 59.7771 28.2889 59.3842 27.9395C58.9912 27.591 58.7948 27.1109 58.7948 26.4994C58.7948 25.6926 59.0676 25.0102 59.6132 24.4538C60.1581 23.8974 60.8352 23.6192 61.6425 23.6192C62.253 23.6192 62.7604 23.7993 63.1645 24.1591C63.5678 24.5193 63.7701 25.0158 63.7701 25.6487C63.77 26.4341 63.4917 27.0998 62.9353 27.645V27.645ZM30.0249 21.1969H27.5374C27.2314 21.1969 27.0463 21.5571 26.9808 22.2772C26.3917 21.4047 25.3551 20.9678 23.8714 20.9678C22.3003 20.9678 20.9636 21.5571 19.8618 22.7354C18.7598 23.9137 18.209 25.2996 18.209 26.8923C18.209 28.18 18.5855 29.2054 19.3383 29.9688C20.0911 30.7331 21.1001 31.1144 22.3658 31.1144C22.9765 31.1144 23.6097 30.9833 24.2641 30.7217C24.9187 30.4598 25.4425 30.1109 25.8352 29.6743C25.7477 29.9361 25.7043 30.1653 25.7043 30.3615C25.7043 30.711 25.846 30.8851 26.1298 30.8851H28.3881C28.8024 30.8851 29.0427 30.6782 29.1082 30.2634L30.4501 21.7207C30.4716 21.5897 30.439 21.4698 30.352 21.3606C30.2646 21.2517 30.1556 21.1969 30.0249 21.1969V21.1969ZM25.7535 27.6612C25.1969 28.1965 24.5148 28.4632 23.7079 28.4632C23.0747 28.4632 22.5674 28.2889 22.1858 27.9395C21.8038 27.591 21.613 27.1109 21.613 26.4994C21.613 25.6926 21.8856 25.0102 22.4313 24.4538C22.9765 23.8974 23.653 23.6192 24.4606 23.6192C25.0713 23.6192 25.5786 23.7993 25.9827 24.1591C26.3861 24.5193 26.5881 25.0158 26.5881 25.6487C26.5881 26.456 26.3099 27.1272 25.7535 27.6612V27.6612ZM54.9162 17.2529C54.0761 16.6753 52.9799 16.3857 51.6269 16.3857H46.4229C45.9863 16.3857 45.7461 16.5931 45.7027 17.0075L43.5754 30.3616C43.5533 30.4928 43.5859 30.6127 43.6735 30.7218C43.7602 30.831 43.8698 30.8853 44.0007 30.8853H46.6845C46.9463 30.8853 47.1207 30.7437 47.2081 30.4599L47.7974 26.6634C47.819 26.4889 47.8955 26.3471 48.0264 26.2378C48.1574 26.1288 48.3209 26.0574 48.5175 26.0247C48.7138 25.9923 48.8989 25.976 49.074 25.976C49.2483 25.976 49.4556 25.987 49.6956 26.0087C49.9357 26.0305 50.0887 26.0411 50.1538 26.0411C52.0306 26.0411 53.5032 25.5124 54.5725 24.4538C55.6416 23.3957 56.1762 21.9284 56.1762 20.0515C56.1763 18.7643 55.756 17.8315 54.9162 17.2529V17.2529ZM51.5615 22.6373C51.0814 22.9645 50.3612 23.1281 49.4013 23.1281L48.3538 23.1608L48.9104 19.6586C48.9536 19.4188 49.0953 19.2987 49.3358 19.2987H49.9248C50.4047 19.2987 50.7864 19.3205 51.0706 19.364C51.3539 19.408 51.6269 19.544 51.8887 19.7731C52.1507 20.0022 52.2815 20.3352 52.2815 20.7714C52.2815 21.688 52.0412 22.3097 51.5615 22.6373V22.6373Z" fill="#7A8487"/>
</g>
<defs>
<clipPath id="clip0_105_1669">
<rect width="78.0338" height="50.0217" fill="white" transform="translate(0.894531 0.260376)"/>
</clipPath>
</defs>
</svg>