<svg width="167" height="57" viewBox="0 0 167 57" fill="none" xmlns="http://www.w3.org/2000/svg">
<path fill-rule="evenodd" clip-rule="evenodd" d="M38.3338 4.46296C38.3154 4.51111 38.2512 4.56929 38.191 4.59216C38.0999 4.62706 38.0967 4.61663 38.1717 4.52635C38.2468 4.43568 38.2428 4.42565 38.1465 4.46256C38.0835 4.48663 38.0321 4.53438 38.0321 4.56848C38.0321 4.60299 37.9695 4.63107 37.8929 4.63107C37.8163 4.63107 37.7533 4.66237 37.7533 4.70048C37.7533 4.739 37.7063 4.7703 37.649 4.7703C37.5916 4.7703 37.5442 4.80159 37.5442 4.84011C37.5442 4.87823 37.4504 4.90952 37.3352 4.90952C37.2205 4.90952 37.1262 4.94282 37.1262 4.98335C37.1262 5.02387 37.1655 5.0347 37.2132 5.00702C37.2614 4.97933 37.2762 4.98375 37.2461 5.01665C37.1948 5.07322 37.0519 5.11775 36.869 5.1342C36.8228 5.13862 36.7875 5.16028 36.7899 5.18275C36.806 5.33161 36.7598 5.39741 36.6383 5.39741C36.5616 5.39741 36.5027 5.42108 36.5075 5.44956C36.532 5.60564 36.4882 5.66783 36.3823 5.6269C36.2944 5.5932 36.2768 5.61045 36.3101 5.69792C36.339 5.77295 36.3061 5.83955 36.2158 5.8877C36.1396 5.92862 36.0938 5.98921 36.1147 6.02251C36.1351 6.05581 36.1063 6.12883 36.0501 6.185C35.9939 6.24077 35.9678 6.30617 35.9915 6.32984C36.0152 6.35352 35.9995 6.37317 35.9562 6.37317C35.9133 6.37317 35.8575 6.48271 35.8326 6.61712C35.8021 6.77921 35.748 6.86066 35.6713 6.86066C35.5823 6.86066 35.5586 6.92044 35.5682 7.12225C35.575 7.26589 35.5486 7.42277 35.5088 7.47051C35.4691 7.51866 35.4639 7.55838 35.4976 7.55878C35.5309 7.55918 35.5112 7.58968 35.4539 7.62579C35.3307 7.70362 35.2741 9.36949 35.3945 9.36949C35.4314 9.36949 35.4426 9.40079 35.419 9.4393C35.3953 9.47742 35.4089 9.50912 35.4499 9.50912C35.4904 9.50912 35.5233 9.6347 35.5233 9.78837C35.5233 9.98175 35.5666 10.1045 35.6629 10.1872C35.7395 10.2526 35.8021 10.3621 35.8021 10.4303C35.8021 10.4985 35.8651 10.6169 35.9418 10.6935C36.0184 10.7702 36.081 10.8817 36.081 10.9415C36.081 11.0013 36.1087 11.033 36.1428 11.0121C36.1769 10.9912 36.2274 11.0442 36.2551 11.13C36.2832 11.2159 36.3141 11.3094 36.3241 11.3383C36.3342 11.3668 36.3462 11.4209 36.351 11.4578C36.3558 11.4952 36.4036 11.5088 36.4573 11.4879C36.5107 11.4675 36.5753 11.4843 36.6006 11.5253C36.6258 11.5662 36.6118 11.5995 36.5689 11.5995C36.5259 11.5995 36.5111 11.6324 36.5364 11.6729C36.5495 11.693 36.5688 11.7084 36.5913 11.7168C36.6138 11.7252 36.6385 11.7261 36.6615 11.7194C36.7057 11.705 36.7988 11.7656 36.8682 11.8539C36.938 11.9425 37.0166 12.0119 37.0431 12.0079C37.2024 11.9855 37.2762 12.0296 37.2389 12.1259C37.2156 12.1865 37.2273 12.2158 37.265 12.1921C37.3019 12.1692 37.4038 12.1901 37.4909 12.2382C37.5775 12.2864 37.6778 12.3177 37.7132 12.3072C37.7481 12.2968 37.742 12.3309 37.6991 12.3823C37.6369 12.4573 37.6642 12.4798 37.8347 12.4926C37.9523 12.5014 38.1144 12.5552 38.195 12.6118C38.4036 12.7578 40.7151 12.763 40.7989 12.6178C40.8294 12.5648 40.9895 12.5058 41.1548 12.487C41.339 12.4661 41.5091 12.3951 41.5946 12.3036C41.6712 12.2214 41.7635 12.1724 41.8 12.1949C41.8361 12.2174 41.8846 12.1865 41.9079 12.1267C41.9308 12.0665 41.9793 12.0175 42.0158 12.0175C42.0524 12.0175 42.0624 12.0569 42.0383 12.1046C42.0138 12.1528 42.0411 12.1339 42.0989 12.0629C42.1567 11.9919 42.2373 11.9546 42.2778 11.9794C42.3224 12.0071 42.3348 11.9826 42.3099 11.9176C42.2823 11.845 42.3296 11.7876 42.4572 11.7391C42.5816 11.6918 42.6321 11.632 42.606 11.5638C42.584 11.5068 42.5976 11.4603 42.6361 11.4603C42.7609 11.4603 43.1541 11.0109 43.1541 10.8681C43.1541 10.7918 43.2006 10.7288 43.2572 10.7288C43.3142 10.7284 43.3635 10.6658 43.3676 10.5892C43.3844 10.2442 43.4029 10.2056 43.5549 10.2004C43.6412 10.1972 43.6741 10.1796 43.6279 10.1607C43.5694 10.137 43.5638 10.076 43.6091 9.95728C43.6444 9.8642 43.658 9.78756 43.6392 9.78756C43.6207 9.78756 43.6576 9.67001 43.7214 9.52637C43.8558 9.22385 43.9148 7.9929 43.8017 7.85488C43.7818 7.82688 43.7689 7.79459 43.7639 7.76064C43.7588 7.72669 43.7619 7.69204 43.7728 7.65949C43.7969 7.5969 43.7852 7.56841 43.7455 7.59289C43.7046 7.61856 43.6769 7.52107 43.6769 7.35215C43.6769 7.15475 43.6344 7.03238 43.5373 6.94933C43.4606 6.88353 43.398 6.7443 43.398 6.63959C43.398 6.53527 43.3495 6.42253 43.2901 6.38922C43.2307 6.35592 43.177 6.26043 43.171 6.17658C43.1645 6.09312 43.1032 6.00686 43.0349 5.98519C42.9294 5.95149 42.8817 5.84356 42.8973 5.67304C42.8989 5.65258 42.8428 5.63092 42.7725 5.6257C42.5964 5.61246 42.3577 5.3966 42.399 5.28827C42.4195 5.23491 42.3681 5.19038 42.271 5.17633C42.1795 5.16349 42.1117 5.10813 42.1157 5.04915C42.1198 4.98174 42.0503 4.93921 41.9195 4.92958C41.8084 4.92116 41.664 4.85094 41.5994 4.77351C41.5332 4.69447 41.3823 4.62546 41.2551 4.61663C41.1219 4.6078 41.0144 4.55685 40.9943 4.49305C40.9482 4.34781 38.3892 4.31892 38.3338 4.46296M18.1717 9.68204C18.1717 9.74022 18.1384 9.78756 18.0979 9.78756C18.0569 9.78756 18.0429 9.81886 18.0666 9.85657C18.091 9.89629 18.0622 9.90753 17.998 9.88305C17.937 9.85938 17.892 9.86781 17.8981 9.90111C17.9044 9.93272 17.9035 9.96534 17.8956 9.9966C17.8535 10.1045 17.8664 10.4845 17.9121 10.4845C17.9691 10.4845 18.1316 10.8331 18.1139 10.9174C18.1083 10.9451 18.1452 10.9515 18.1962 10.9318C18.2467 10.9122 18.3286 10.9443 18.3771 11.0033C18.4261 11.0622 18.4947 11.0927 18.5296 11.0711C18.5645 11.0494 18.5845 11.0727 18.5741 11.1224C18.5633 11.1722 18.6255 11.2235 18.7117 11.2368C18.798 11.25 18.8682 11.3022 18.8682 11.3523C18.8682 11.4029 18.9344 11.4611 19.0147 11.4823C19.0953 11.5032 19.1418 11.5517 19.1182 11.5898C19.0945 11.628 19.139 11.6793 19.2169 11.7042C19.2947 11.7287 19.34 11.778 19.3184 11.8137C19.2963 11.849 19.3288 11.8783 19.391 11.8783C19.4532 11.8783 19.4861 11.9068 19.4648 11.9413C19.4432 11.9762 19.4809 11.9903 19.5479 11.9726C19.6153 11.955 19.7328 11.9971 19.8095 12.0661C19.9579 12.2001 19.9579 12.2005 20.4362 12.2162C20.6087 12.2222 20.7499 12.2599 20.7499 12.3004C20.7499 12.3409 20.7106 12.3522 20.6629 12.3253C20.6011 12.2904 20.5967 12.2988 20.648 12.355C20.6877 12.3983 20.9979 12.4517 21.3377 12.4733C21.6772 12.4946 22.0431 12.558 22.1506 12.6134C22.2706 12.6756 22.5486 12.7145 22.872 12.7145C23.3795 12.7145 23.4393 12.7401 23.4052 12.944C23.4 12.9745 23.4574 12.9664 23.532 12.9263C23.6199 12.8794 23.6833 12.8778 23.7105 12.9219C23.7338 12.9592 23.9316 12.9917 24.1503 12.9937C24.7329 12.9993 24.7818 13.0082 24.7465 13.1C24.7232 13.1606 24.8749 13.1871 25.291 13.1959C25.707 13.2052 25.9016 13.2393 25.9903 13.3195C26.1239 13.4403 26.2262 13.4587 26.834 13.4724C27.0844 13.4776 27.2224 13.5077 27.1959 13.5506C27.1723 13.5891 27.1783 13.6244 27.2092 13.6293C27.472 13.6714 27.6778 13.691 28.0722 13.7119C28.6279 13.7416 28.7218 13.7869 28.6211 13.9751C28.581 14.0505 28.518 14.0939 28.4815 14.0714C28.4453 14.0489 28.4153 14.065 28.4153 14.1071C28.4153 14.1492 28.2431 14.3579 28.0321 14.5705C27.8215 14.7828 27.6485 14.993 27.6477 15.0375C27.6473 15.0853 27.6204 15.0773 27.5827 15.0179C27.533 14.9388 27.5089 14.9577 27.472 15.1049C27.4459 15.2085 27.3793 15.2931 27.3235 15.2931C27.2682 15.2931 27.2421 15.3244 27.2658 15.3625C27.2894 15.401 27.2638 15.4323 27.2084 15.4323C27.1534 15.4323 27.0692 15.527 27.0214 15.6426C26.9512 15.8111 26.9151 15.8368 26.8369 15.7722C26.7594 15.7076 26.7486 15.714 26.7831 15.8043C26.8108 15.8769 26.749 15.9944 26.6102 16.1337C26.491 16.2524 26.4112 16.3788 26.4328 16.4137C26.4545 16.449 26.3983 16.4775 26.308 16.4775C26.0998 16.4775 25.9762 16.5995 25.9762 16.8053C25.9762 16.8932 25.9445 16.9654 25.9052 16.9654C25.827 16.9654 25.0358 17.7349 25.0358 17.8108C25.0358 17.8978 24.6478 18.218 24.5627 18.2016C24.5162 18.1923 24.4865 18.2256 24.4969 18.2758C24.5198 18.3885 24.3385 18.5795 24.2714 18.5125C24.2446 18.4856 24.2289 18.4949 24.2365 18.5334C24.2743 18.7195 24.2345 18.8154 24.1647 18.7075C24.1069 18.6184 24.0969 18.6208 24.0961 18.7252C24.0953 18.7922 24.0636 18.8471 24.0251 18.8471C23.987 18.8471 23.9557 18.8977 23.9557 18.9599C23.9557 19.0441 23.9328 19.0542 23.8658 18.9988C23.7972 18.9418 23.7727 18.9655 23.7615 19.1007C23.7535 19.1978 23.6764 19.3362 23.5898 19.408C23.4132 19.5553 23.2945 19.5854 23.3699 19.4634C23.4012 19.4124 23.3888 19.402 23.3358 19.4349C23.2716 19.4742 23.2708 19.5095 23.3334 19.585C23.3864 19.6488 23.3892 19.6833 23.3414 19.6833C23.3013 19.6833 23.2479 19.7463 23.2235 19.8237C23.199 19.9007 23.1476 19.9449 23.1095 19.9212C23.0714 19.8975 23.0224 19.9461 23.0008 20.0287C22.9791 20.1114 22.9233 20.1643 22.8764 20.1463C22.8295 20.1282 22.7159 20.2354 22.624 20.3842C22.5326 20.5331 22.4182 20.6558 22.3701 20.657C22.3223 20.6578 22.283 20.7024 22.283 20.7553C22.283 20.8083 22.2192 20.8681 22.1418 20.8885C22.0639 20.909 22.009 20.9668 22.0198 21.0169C22.0302 21.0675 21.9704 21.1188 21.8862 21.1321C21.7907 21.1465 21.747 21.1911 21.7694 21.25C21.7895 21.3022 21.7409 21.38 21.6611 21.4226C21.5817 21.4651 21.5163 21.5477 21.5163 21.6063C21.5163 21.6645 21.4866 21.6938 21.4505 21.6713C21.414 21.6489 21.3498 21.695 21.3072 21.7736C21.2635 21.8563 21.1953 21.8968 21.1471 21.8691C21.101 21.8426 21.0854 21.8455 21.1126 21.8755C21.1395 21.9052 21.1154 21.9754 21.0597 22.0316C21.0035 22.0878 20.9742 22.16 20.9943 22.1929C21.0143 22.2254 20.9943 22.2748 20.9493 22.3024C20.8984 22.3337 20.8863 22.3225 20.9176 22.2724C20.9449 22.2282 20.9341 22.1921 20.8936 22.1921C20.8526 22.1921 20.8197 22.2378 20.8197 22.294C20.8197 22.3502 20.756 22.43 20.6781 22.4718C20.6007 22.5135 20.5533 22.5737 20.5734 22.6062C20.5931 22.6383 20.518 22.7378 20.4061 22.8268C20.2941 22.9159 20.2179 23.013 20.2368 23.0431C20.2552 23.0732 20.2087 23.0977 20.1333 23.0977C20.0362 23.0977 20.0057 23.1342 20.0289 23.222C20.0522 23.3115 20.0185 23.3496 19.9074 23.3581C19.8227 23.3645 19.7188 23.407 19.6767 23.4531C19.6193 23.5153 19.6241 23.5226 19.6963 23.4816C19.7621 23.4443 19.7814 23.4576 19.7573 23.5238C19.7381 23.5771 19.6867 23.6128 19.6438 23.6032C19.6004 23.5936 19.5651 23.6485 19.5651 23.7252C19.5651 23.815 19.5186 23.8644 19.4339 23.8644C19.3593 23.8644 19.2863 23.9274 19.2646 24.0108C19.2429 24.0935 19.1932 24.1368 19.1503 24.1099C19.1081 24.0843 19.0784 24.0891 19.0841 24.1204C19.1097 24.2684 19.0652 24.339 18.9236 24.3764C18.8389 24.3984 18.7904 24.4365 18.8148 24.4614C18.8722 24.5184 18.7121 24.6969 18.6419 24.6544C18.613 24.6371 18.5898 24.6837 18.5898 24.7583C18.5898 24.845 18.5452 24.8907 18.4678 24.8847C18.3912 24.8783 18.3494 24.9204 18.3554 24.9966C18.3623 25.0813 18.3145 25.1186 18.201 25.1186C18.0834 25.1186 18.0481 25.1487 18.0766 25.2233C18.1107 25.312 18.0076 25.3276 17.3929 25.3276C16.8312 25.3276 16.6326 25.3537 16.5042 25.4436C16.3863 25.5263 16.1764 25.562 15.7744 25.568C15.4639 25.5728 15.1706 25.6009 15.1228 25.6306C15.0747 25.6603 15.0357 25.6631 15.0357 25.637C15.0357 25.6109 14.9884 25.6286 14.931 25.6763C14.8737 25.7241 14.8267 25.7329 14.8267 25.6964C14.8267 25.6599 14.7826 25.6298 14.7288 25.6298C14.6746 25.6298 14.647 25.6715 14.6666 25.7228C14.7011 25.8135 14.3477 25.8444 13.4826 25.8264C13.3085 25.8228 13.2347 25.8468 13.266 25.897C13.2936 25.9419 13.2732 25.9596 13.2162 25.9403C13.1628 25.9227 13.0252 25.9427 12.9101 25.9857C12.7953 26.0286 12.419 26.0627 12.0739 26.0615C11.564 26.0599 11.4272 26.0819 11.3421 26.1802C11.2575 26.2781 11.107 26.303 10.5413 26.311C9.80704 26.3215 9.64615 26.3484 9.70914 26.4503C9.75167 26.5193 9.75167 26.5193 8.86818 26.5385C8.52353 26.5462 8.20416 26.575 8.15882 26.6031C8.11349 26.6312 8.05611 26.6208 8.03083 26.5799C7.99874 26.5285 7.95821 26.5277 7.89763 26.5783C7.84948 26.618 7.78448 26.6276 7.75319 26.5991C7.72189 26.5706 7.71588 26.6023 7.73995 26.6693C7.78609 26.7973 7.86072 26.7905 6.2434 26.8082C6.12544 26.8098 6.06967 26.8419 6.09093 26.8964C6.14149 27.0284 5.97418 27.0621 5.19942 27.0754C4.7007 27.0838 4.45636 27.1167 4.38976 27.1833C4.33679 27.2363 4.15344 27.2792 3.98051 27.2792C3.6828 27.2792 3.4192 27.4164 3.52111 27.5183C3.54679 27.544 3.51389 27.5444 3.44809 27.5191C3.34016 27.4778 3.32812 27.5368 3.32812 28.1153C3.32812 28.6574 3.34457 28.7513 3.43284 28.7172C3.49022 28.6951 3.53716 28.7115 3.53716 28.7537C3.53716 28.7962 3.6471 28.9342 3.7811 29.0606C3.91551 29.187 4.02505 29.3218 4.02505 29.3603C4.02505 29.3984 4.08322 29.4482 4.15384 29.4707C4.22485 29.4931 4.31874 29.5902 4.36247 29.6865C4.40621 29.7828 4.48926 29.8795 4.54663 29.9016C4.60441 29.9236 4.63129 29.9746 4.60641 30.0147C4.58154 30.0552 4.59358 30.0677 4.6337 30.0432C4.67342 30.0187 4.74484 30.0452 4.79218 30.1022C4.83952 30.1591 4.92378 30.2057 4.97915 30.2057C5.04816 30.2057 5.06581 30.2498 5.03572 30.3453C4.99961 30.4593 5.02288 30.4845 5.16451 30.4845C5.2596 30.4845 5.35068 30.5239 5.36673 30.5716C5.40845 30.6964 12.1574 30.6639 12.2513 30.5387C12.2721 30.511 14.1378 30.4849 16.3975 30.4809C20.2909 30.4741 20.5132 30.4669 20.6452 30.3449C20.7218 30.2743 20.8944 30.2061 21.0288 30.1937C21.1644 30.1812 21.2659 30.1355 21.2575 30.0909C21.2483 30.042 21.2996 30.0259 21.3903 30.0496C21.501 30.0789 21.5239 30.0653 21.481 29.9959C21.44 29.9292 21.4553 29.9156 21.5363 29.9465C21.6093 29.9746 21.6631 29.9445 21.6896 29.861C21.7145 29.7828 21.8252 29.715 21.9737 29.6869C22.1077 29.662 22.1987 29.6115 22.1763 29.5754C22.1538 29.5389 22.1863 29.5092 22.2489 29.5092C22.3111 29.5092 22.4696 29.4269 22.6012 29.3266C22.7328 29.2263 22.8407 29.1693 22.8407 29.2002C22.8407 29.2311 22.9065 29.1858 22.9871 29.0991C23.0674 29.0129 23.1697 28.9559 23.2138 28.9727C23.3065 29.0084 23.4802 28.848 23.4168 28.7846C23.394 28.7613 23.4413 28.7424 23.5224 28.7424C23.6034 28.7424 23.6969 28.6939 23.7302 28.6345C23.7635 28.5751 23.8827 28.5161 23.995 28.5037C24.1386 28.4873 24.1932 28.4471 24.1788 28.3677C24.1575 28.2485 24.2682 28.2241 24.722 28.2485C24.9026 28.2582 25.0217 28.324 25.181 28.5021C25.301 28.6357 25.4635 28.7424 25.5469 28.7424C25.63 28.7424 25.6938 28.7661 25.6894 28.7946C25.6649 28.9487 25.7122 29.0213 25.837 29.0213C25.9144 29.0213 25.9762 29.0678 25.9762 29.1256C25.9762 29.1834 26.0236 29.2303 26.081 29.2303C26.1084 29.2303 26.1348 29.2411 26.1543 29.2604C26.1738 29.2798 26.185 29.306 26.1853 29.3334C26.1853 29.3904 26.2707 29.4582 26.375 29.4843C26.4794 29.5104 26.6635 29.6364 26.7839 29.7643C26.9047 29.8923 27.0355 29.9967 27.0748 29.9967C27.1141 29.9967 27.1643 30.044 27.1863 30.1014C27.2084 30.1587 27.2722 30.2057 27.3283 30.2057C27.3845 30.2057 27.4491 30.2651 27.4724 30.3377C27.4953 30.4103 27.5835 30.4886 27.6686 30.5118C27.7922 30.5459 27.8034 30.5672 27.724 30.6181C27.6493 30.6663 27.675 30.688 27.8283 30.7052C27.9663 30.7209 28.0249 30.7622 28.0088 30.8332C27.996 30.8906 28.0084 30.915 28.0361 30.8874C28.0638 30.8597 28.1785 30.9146 28.2913 31.0093C28.4036 31.104 28.5404 31.1815 28.595 31.1815C28.6496 31.1815 28.6941 31.2248 28.6941 31.2778C28.6941 31.3311 28.7599 31.3917 28.8406 31.4126C28.9212 31.4338 28.9669 31.4836 28.9421 31.5233C28.9176 31.563 28.977 31.6156 29.0745 31.6401C29.172 31.6645 29.2518 31.7259 29.2518 31.7769C29.2518 31.8659 29.5058 31.9915 29.6225 31.9602C29.6542 31.9514 29.6619 31.9743 29.639 32.0112C29.6165 32.0477 29.6578 32.0962 29.7309 32.1195C29.7706 32.1349 29.8065 32.1589 29.8357 32.19C29.8649 32.221 29.8868 32.2582 29.8998 32.2989C29.9107 32.3393 29.935 32.3748 29.9688 32.3997C30.0025 32.4245 30.0437 32.4372 30.0855 32.4357C30.1682 32.4357 30.2159 32.4674 30.1923 32.5055C30.1541 32.5677 30.2436 32.605 30.382 32.5841C30.4097 32.5801 30.4663 32.6407 30.508 32.7185C30.5502 32.7968 30.6625 32.8903 30.7584 32.9268C30.8543 32.9633 30.9125 33.0255 30.8884 33.0648C30.8639 33.1041 30.8844 33.1274 30.9337 33.1169C30.9831 33.1065 31.0557 33.1683 31.095 33.2546C31.1343 33.3408 31.2238 33.4114 31.294 33.4114C31.4489 33.4114 31.621 33.5715 31.621 33.7156C31.621 33.7729 31.682 33.8395 31.757 33.8632C31.8317 33.8869 31.8774 33.9463 31.8585 33.9952C31.8397 34.0442 31.8537 34.1617 31.8898 34.2568C31.9312 34.3651 31.9308 34.4735 31.8894 34.5477C31.8405 34.6348 31.8497 34.6657 31.9235 34.6657C32.0632 34.6657 32.1001 34.8675 32.1141 35.7076C32.1229 36.2184 32.155 36.4643 32.222 36.5313C32.3284 36.6373 32.3288 36.6401 32.344 37.396C32.3496 37.6905 32.3765 37.9533 32.4034 37.9801C32.4303 38.007 32.4219 38.0865 32.3841 38.1563C32.3312 38.2554 32.3472 38.3003 32.4564 38.3589C32.5819 38.4259 32.5968 38.5041 32.5976 39.1108C32.5984 39.8133 32.6437 40.1239 32.736 40.0665C32.8179 40.0159 32.8423 40.2137 32.8411 40.9203C32.8407 41.2746 32.8612 41.5647 32.8865 41.5647C32.9438 41.5647 32.9246 41.7095 32.852 41.8262C32.799 41.9105 32.8423 41.9426 32.9743 41.9177C33.0096 41.9109 32.9972 41.955 32.947 42.0156C32.87 42.1083 32.8724 42.1191 32.9619 42.0846C33.053 42.0497 33.0702 42.1528 33.0794 42.794C33.0855 43.2064 33.12 43.5796 33.1565 43.6233C33.193 43.6671 33.2018 43.7236 33.1769 43.7489C33.1517 43.7742 33.1621 43.7946 33.2006 43.7946C33.276 43.7946 33.2921 43.8789 33.3049 44.3347C33.3094 44.4976 33.3419 44.6312 33.3764 44.6312C33.4113 44.6312 33.5108 44.7078 33.5978 44.8021C33.7908 45.0099 35.969 45.0757 35.7965 44.8683C35.7327 44.7909 35.7395 44.7704 35.8302 44.7704C35.8932 44.7704 35.9755 44.6902 36.0128 44.5919C36.0501 44.494 36.1071 44.4298 36.1388 44.4494C36.3005 44.5493 36.29 32.1717 36.1287 32.0533C36.0545 31.9991 35.9971 31.8603 35.9895 31.7167C35.9823 31.5823 35.9606 31.4735 35.9418 31.4748C35.8122 31.4824 35.7351 31.4511 35.75 31.3965C35.7781 31.293 35.429 30.7634 35.3327 30.7634C35.2846 30.7634 35.2448 30.6988 35.2448 30.6197C35.2448 30.5411 35.2131 30.4958 35.175 30.5194C35.1365 30.5431 35.0747 30.4825 35.0374 30.3842C35.0001 30.2863 34.9395 30.2057 34.9026 30.2057C34.8661 30.2057 34.8147 30.1387 34.7887 30.056C34.7626 29.9738 34.6398 29.8053 34.5158 29.6813C34.3918 29.5573 34.2711 29.4053 34.247 29.3431C34.2233 29.2809 34.1696 29.2303 34.1278 29.2303C34.0861 29.2303 34.0693 29.2022 34.0905 29.1677C34.1479 29.0751 33.9657 28.7621 33.8727 28.7934C33.8281 28.8082 33.7812 28.7477 33.7675 28.6594C33.7543 28.5711 33.7025 28.5073 33.6524 28.5178C33.6026 28.5282 33.5818 28.5049 33.6059 28.4656C33.6303 28.4263 33.6187 28.3942 33.5802 28.3942C33.5421 28.3942 33.5228 28.3312 33.5376 28.2542C33.5613 28.1306 33.5469 28.1238 33.4117 28.196C33.2732 28.2698 33.2676 28.2662 33.3543 28.1615C33.4165 28.086 33.4225 28.0455 33.3715 28.0455C33.3286 28.0455 33.2937 28.0022 33.2937 27.9492C33.2937 27.8963 33.2287 27.8361 33.1497 27.8152C33.0586 27.7911 33.0141 27.7314 33.0277 27.6503C33.0429 27.5616 33.0124 27.5291 32.9278 27.5436C32.8576 27.5552 32.8058 27.5203 32.8058 27.4613C32.8058 27.4048 32.7565 27.3093 32.6963 27.2491C32.6361 27.1889 32.6068 27.1396 32.6313 27.1396C32.6562 27.1396 32.6349 27.0938 32.5843 27.0376C32.3841 26.8158 32.3179 26.7251 32.3167 26.6721C32.3159 26.642 32.2377 26.5433 32.1426 26.4531C32.0475 26.3632 31.9873 26.2613 32.0086 26.2268C32.0299 26.1923 32.0134 26.1642 31.9717 26.1642C31.9304 26.1642 31.8666 26.0856 31.83 25.9897C31.7935 25.8942 31.7338 25.8155 31.6972 25.8155C31.6603 25.8155 31.6106 25.7529 31.5861 25.6763C31.562 25.5997 31.495 25.5367 31.4381 25.5367C31.3807 25.5367 31.3538 25.505 31.3779 25.4661C31.4019 25.4271 31.4557 25.4163 31.497 25.442C31.544 25.4709 31.5528 25.456 31.5203 25.4035C31.4914 25.3569 31.4517 25.3345 31.4324 25.3537C31.3759 25.4103 31.0637 25.0661 31.0637 24.9477C31.0637 24.8883 31.0336 24.8402 30.9971 24.8402C30.8507 24.8402 30.5758 24.4787 30.5758 24.2857C30.5758 24.1156 30.5538 24.0923 30.4246 24.126C30.3038 24.1577 30.2825 24.142 30.3191 24.0474C30.3471 23.9739 30.3247 23.9137 30.2605 23.8889C30.2035 23.8672 30.1064 23.7428 30.0446 23.6128C29.9832 23.4828 29.8813 23.3741 29.8187 23.3709C29.7529 23.3681 29.7397 23.3512 29.7878 23.3316C29.8101 23.3221 29.8278 23.3043 29.8372 23.282C29.8465 23.2596 29.8468 23.2345 29.838 23.212C29.8199 23.1647 29.8833 23.0523 29.9792 22.9625C30.0751 22.8726 30.1401 22.7775 30.1241 22.7514C30.1076 22.7249 30.179 22.609 30.2829 22.4938C30.6621 22.0709 30.748 21.9602 30.6521 22.0164C30.5859 22.0553 30.5702 22.0481 30.6039 21.9935C30.6312 21.9494 30.6918 21.9133 30.7383 21.9133C30.7853 21.9133 30.8852 21.7724 30.9606 21.6003C31.0545 21.3869 31.1408 21.287 31.2318 21.2866C31.3053 21.2861 31.345 21.2657 31.3201 21.2408C31.2952 21.2159 31.3478 21.1277 31.4369 21.045C31.5352 20.9539 31.5897 20.8352 31.5757 20.7421C31.5624 20.655 31.5897 20.5876 31.6391 20.586C31.6864 20.584 31.7883 20.5026 31.865 20.4051C31.9416 20.3072 32.1298 20.0985 32.283 19.9417C32.4363 19.7844 32.5234 19.6793 32.476 19.7077C32.4267 19.7374 32.4415 19.6692 32.5109 19.5477C32.5771 19.4309 32.6726 19.3354 32.7228 19.335C32.7729 19.335 32.7946 19.3033 32.7705 19.2644C32.7468 19.2259 32.7761 19.1757 32.8359 19.1529C32.8953 19.13 32.9282 19.0851 32.9085 19.053C32.8885 19.0209 32.9125 18.9695 32.9619 18.9382C33.0108 18.9073 33.1099 18.7693 33.1818 18.6321C33.254 18.4945 33.4024 18.3219 33.5124 18.2485C33.6361 18.1568 33.7312 18.0318 33.7868 17.8882C33.8285 17.763 33.8887 17.6776 33.9212 17.6976C33.9537 17.7177 34.0015 17.6675 34.0271 17.5861C34.0532 17.505 34.1174 17.3867 34.1704 17.3237C34.2233 17.2607 34.3164 17.1468 34.3774 17.0701C34.4384 16.9935 34.4681 16.9774 34.4432 17.0352C34.4183 17.0926 34.4464 17.0769 34.5054 17.0003C34.5644 16.9237 34.6454 16.823 34.6847 16.7768C34.728 16.721 34.7532 16.6532 34.757 16.5826C34.757 16.5225 34.822 16.449 34.9014 16.4197C34.9808 16.3901 35.0394 16.3363 35.0314 16.2998C35.023 16.2637 35.0831 16.1995 35.165 16.1577C35.2468 16.116 35.2938 16.0619 35.2693 16.0374C35.2448 16.0133 35.2605 15.9503 35.3038 15.8982C35.3471 15.8456 35.3596 15.7794 35.3311 15.7509C35.303 15.7228 35.3247 15.71 35.3801 15.7228C35.4354 15.7357 35.4936 15.6839 35.51 15.6073C35.5265 15.531 35.5995 15.4271 35.6721 15.3762C35.7452 15.3252 35.7881 15.2566 35.7676 15.2233C35.7472 15.1904 35.7937 15.1435 35.8707 15.119C35.9482 15.0945 36.0112 15.0155 36.0112 14.9437C36.0112 14.8718 36.081 14.7643 36.166 14.7045C36.2515 14.6447 36.2888 14.5962 36.2495 14.5962C36.2042 14.5962 36.1937 14.455 36.2206 14.2102C36.2615 13.8387 36.1801 13.6144 36.0513 13.7432C36.0228 13.7713 36.0076 13.7633 36.0168 13.7251C36.0489 13.596 35.9273 13.2722 35.8471 13.2718C35.8033 13.2718 35.699 13.1073 35.616 12.9063C35.5325 12.7048 35.4306 12.548 35.3893 12.5576C35.3207 12.5736 35.307 12.5371 35.2866 12.2791C35.2826 12.231 35.1939 12.1094 35.0892 12.0083C34.9094 11.835 34.7212 11.4871 34.7457 11.3732C34.7517 11.3443 34.71 11.3206 34.6522 11.3206C34.5487 11.3206 34.5363 11.2958 34.5242 11.0594C34.5158 10.901 34.3922 10.8171 34.3244 10.9238C34.2939 10.9716 34.2707 10.909 34.2703 10.7766C34.2695 10.649 34.2394 10.5643 34.2029 10.5868C34.1266 10.6341 33.9734 10.3854 34.0388 10.32C34.0628 10.2959 34.0067 10.21 33.9144 10.129C33.8221 10.048 33.7547 9.95287 33.7643 9.91756C33.7744 9.88225 33.7274 9.8333 33.66 9.80843C33.5926 9.78355 33.5152 9.72939 33.4875 9.68806C33.3992 9.55486 18.1717 9.54884 18.1717 9.68204M53.9614 41.1719C53.9883 41.2417 53.9686 41.289 53.9108 41.2938C53.8005 41.3035 53.5229 41.3436 53.3403 41.3769C53.264 41.3936 53.1963 41.4373 53.1497 41.5001C53.1148 41.5546 53.0863 41.5723 53.0855 41.539C53.0851 41.5053 53.0374 41.5169 52.98 41.5647C52.9226 41.6124 52.8733 41.624 52.8709 41.5907C52.8685 41.5574 52.8384 41.6004 52.8035 41.6866C52.769 41.7729 52.6923 41.8475 52.6338 41.8523C52.5744 41.8572 52.5154 41.8659 52.4572 41.8784C52.4054 41.8903 52.3531 41.8994 52.3003 41.9057C52.2397 41.9125 52.2454 41.9358 52.318 41.9827C52.3754 42.02 52.391 42.0509 52.3529 42.0517C52.2177 42.0537 51.8887 42.3855 51.9842 42.4237C52.0411 42.4465 52.0295 42.4618 51.9521 42.4654C51.8787 42.4686 51.8301 42.526 51.8301 42.6094C51.8301 42.6857 51.7675 42.7876 51.6909 42.8353C51.6086 42.8867 51.5513 42.9978 51.5513 43.1065C51.5513 43.2369 51.5055 43.3047 51.3948 43.3385C51.2989 43.3673 51.272 43.4002 51.3254 43.4223C51.3735 43.442 51.3896 43.4949 51.3607 43.5395C51.2367 43.732 51.2929 45.1776 51.4257 45.2122C51.5119 45.235 51.5513 45.3117 51.5513 45.4573C51.5513 45.5869 51.599 45.696 51.6732 45.7377C51.7402 45.7751 51.7952 45.8786 51.7952 45.9676C51.7952 46.0647 51.8369 46.1293 51.8999 46.1293C52.0175 46.1293 52.1342 46.2758 52.0825 46.3592C52.064 46.3893 52.1475 46.4214 52.2678 46.4307C52.462 46.4455 52.5515 46.5061 52.6129 46.665C52.6233 46.6915 52.7132 46.724 52.8127 46.7368C52.9126 46.75 53.0482 46.8146 53.114 46.8804C53.1798 46.9466 53.3098 47.0004 53.4029 47.0004C53.5012 47.0004 53.565 47.0369 53.5549 47.0875C53.5429 47.1472 53.6633 47.1809 53.9381 47.1954C54.2615 47.2122 54.3389 47.2395 54.3389 47.3354C54.3389 47.4177 54.3987 47.4566 54.5303 47.4614L55.0182 47.4778C55.2304 47.4851 55.3143 47.518 55.3143 47.5926C55.3143 47.6732 55.4058 47.6973 55.7151 47.6981C55.9518 47.6989 56.079 47.723 56.0253 47.7567C55.9534 47.8024 55.9567 47.8321 56.0429 47.9035C56.1103 47.9593 56.1508 47.9649 56.1508 47.9184C56.1508 47.8177 56.5838 47.9653 56.6596 48.0917C56.6901 48.1431 56.7764 48.1852 56.851 48.1852C56.9256 48.1852 56.987 48.2281 56.987 48.2811C56.987 48.3336 57.0339 48.4159 57.0913 48.4636C57.2887 48.6273 57.0985 49.4394 56.8634 49.4394C56.8036 49.4394 56.7739 49.4587 56.7976 49.4823C56.8626 49.5473 56.666 49.7183 56.5272 49.7183C56.4602 49.7183 56.3454 49.7724 56.272 49.839C56.1055 49.9895 54.4938 49.9955 54.4015 49.8458C54.3722 49.7989 54.2041 49.7431 54.028 49.7219C53.8515 49.7006 53.711 49.6553 53.7154 49.6216C53.7275 49.5313 53.5614 49.4418 53.3808 49.4406C53.2881 49.4398 53.2239 49.3965 53.2239 49.3347C53.2239 49.2749 53.161 49.2304 53.0771 49.2304C52.9708 49.2304 52.9423 49.1995 52.9732 49.118C53.0041 49.0378 52.9864 49.0173 52.911 49.0462C52.8532 49.0683 52.8059 49.0562 52.8059 49.0189C52.8055 49.0008 52.7979 48.9835 52.7848 48.9709C52.7717 48.9583 52.7542 48.9513 52.7361 48.9515C52.6979 48.9515 52.6101 48.8954 52.5415 48.8268C52.4676 48.7529 52.332 48.708 52.2105 48.7164C52.0973 48.7244 51.9549 48.7337 51.8943 48.7369C51.8265 48.7405 51.7864 48.8027 51.7896 48.8994C51.7928 48.9896 51.7583 49.0486 51.7081 49.0386C51.6604 49.029 51.6279 49.0446 51.6359 49.0735C51.6632 49.1702 51.4778 49.4394 51.3839 49.4394C51.3314 49.4394 51.2945 49.5076 51.2993 49.5963C51.3049 49.7026 51.272 49.7471 51.1978 49.7351C51.1075 49.7207 51.0878 49.7965 51.0878 50.1612C51.0878 50.556 51.1019 50.6009 51.215 50.5713C51.2872 50.5524 51.3422 50.5753 51.3422 50.6234C51.3422 50.6736 51.3892 50.6908 51.4554 50.6651C51.5392 50.633 51.5597 50.6543 51.5352 50.7482C51.5119 50.8377 51.5432 50.8778 51.6423 50.8854C51.7988 50.897 51.9128 51.0351 51.8498 51.1366C51.8269 51.1731 51.8373 51.1855 51.8722 51.1639C51.9075 51.1422 52.0456 51.1735 52.1792 51.2337C52.3132 51.2943 52.4452 51.346 52.4725 51.3496C52.5001 51.3528 52.5868 51.411 52.6658 51.4784C52.7445 51.5458 52.8998 51.6112 53.0105 51.6233C53.1212 51.6353 53.2917 51.6979 53.3896 51.7617C53.687 51.9567 56.9072 51.9358 57.0765 51.738C57.1611 51.6389 57.2462 51.6096 57.3637 51.6393C57.4789 51.6678 57.5511 51.6453 57.5952 51.5663C57.6542 51.4612 57.7814 51.4098 58.0189 51.3958C58.0691 51.393 58.0908 51.3593 58.0671 51.3207C58.0434 51.2826 58.0538 51.2513 58.0903 51.2513C58.1273 51.2513 58.2308 51.1735 58.3211 51.0784C58.4113 50.9829 58.5245 50.9047 58.5722 50.9039C58.6204 50.9035 58.6593 50.8569 58.6593 50.8008C58.6593 50.7446 58.7223 50.6651 58.7989 50.6242C58.8755 50.5829 58.9381 50.4862 58.9381 50.4084C58.9381 50.3309 58.969 50.2864 59.0063 50.3097C59.0449 50.3333 59.0946 50.2278 59.1199 50.0709C59.1444 49.9169 59.1889 49.8053 59.2182 49.8234C59.2868 49.8659 59.3694 49.6565 59.3177 49.5726C59.296 49.5377 59.3085 49.5092 59.3454 49.5092C59.4842 49.5092 59.4027 47.6419 59.2591 47.5368C59.1885 47.4855 59.1211 47.3539 59.1091 47.2447C59.097 47.1356 59.038 47.0184 58.9779 46.9847C58.9177 46.9514 58.8683 46.8784 58.8683 46.8226C58.8683 46.7673 58.835 46.7215 58.7941 46.7215C58.7532 46.7215 58.6135 46.6092 58.4839 46.4716C58.3403 46.3195 58.2151 46.2417 58.1642 46.2734C58.1156 46.3035 58.0984 46.2958 58.1237 46.2549C58.1674 46.1843 57.9848 46.0688 57.7048 45.9905C57.6205 45.9672 57.5664 45.9087 57.5848 45.8609C57.6069 45.8036 57.5527 45.7771 57.4243 45.7831C57.299 45.7832 57.1757 45.7518 57.0656 45.692C56.9746 45.637 56.9212 45.6266 56.9473 45.6683C56.9766 45.7157 56.9537 45.7289 56.8863 45.7032C56.8273 45.6804 56.796 45.6338 56.8173 45.5993C56.8385 45.5648 56.6937 45.5367 56.4959 45.5367C56.2243 45.5367 56.1444 45.5139 56.1713 45.4441C56.191 45.3931 56.1709 45.3458 56.1268 45.3397C56.0822 45.3333 55.858 45.3088 55.6281 45.2852C55.3982 45.2611 55.1899 45.2097 55.165 45.1708C55.1406 45.1319 54.962 45.0846 54.7686 45.0661C54.5576 45.0456 54.3598 44.979 54.2747 44.9C54.1965 44.827 54.1163 44.768 54.0962 44.7688C53.9008 44.7768 53.8511 44.7552 53.8511 44.6617C53.8511 44.6019 53.8198 44.5726 53.7812 44.5963C53.7431 44.6199 53.7118 44.5782 53.7118 44.5032C53.7118 44.4286 53.6637 44.3487 53.6047 44.3263C53.4707 44.2749 53.4859 43.7946 53.6216 43.7946C53.6709 43.7946 53.7118 43.732 53.7118 43.6554C53.7118 43.5788 53.7544 43.5162 53.8069 43.5162C53.8591 43.5162 53.9843 43.4512 54.085 43.3722C54.1853 43.2931 54.3385 43.2381 54.4252 43.2502C54.5271 43.2642 54.5761 43.2393 54.5636 43.18C54.5532 43.129 54.5745 43.1061 54.611 43.1286C54.6479 43.1515 54.6972 43.1378 54.7213 43.0989C54.7454 43.06 54.9376 43.0283 55.1486 43.0283C55.3861 43.0283 55.5153 43.0548 55.4888 43.0977C55.4652 43.1362 55.4945 43.1675 55.5542 43.1675C55.614 43.1675 55.663 43.192 55.663 43.2221C55.663 43.2518 55.8515 43.2706 56.0822 43.2638C56.4309 43.2534 56.514 43.2739 56.5725 43.3838C56.6127 43.4588 56.7178 43.5162 56.8153 43.5162C56.9292 43.5162 56.987 43.5551 56.987 43.6321C56.987 43.6959 57.0067 43.7284 57.0311 43.7044C57.1021 43.6329 57.3437 43.7946 57.2919 43.8789C57.263 43.925 57.2763 43.9359 57.3248 43.9058C57.369 43.8785 57.4051 43.8893 57.4051 43.9298C57.4051 43.9708 57.4677 44.0037 57.5443 44.0037C57.6209 44.0037 57.6839 44.0474 57.6839 44.1004C57.6839 44.2103 57.9259 44.2922 58.0779 44.234C58.1337 44.2123 58.163 44.1517 58.1429 44.0996C58.118 44.0342 58.1618 44.0037 58.2825 44.0037C58.3792 44.0037 58.4398 43.9736 58.4169 43.9367C58.3945 43.8998 58.4394 43.8059 58.5177 43.7276C58.5955 43.6494 58.6593 43.5455 58.6593 43.4965C58.6593 43.4143 58.8968 43.1643 58.9498 43.1908C58.9626 43.1972 58.965 43.1892 58.9554 43.1731C58.9458 43.1571 58.9875 43.0893 59.0477 43.0227C59.1793 42.8774 59.1572 42.4963 59.0188 42.5252C58.9674 42.536 58.9385 42.5047 58.9546 42.4562C58.9811 42.3763 58.8346 42.1713 58.7339 42.1476C58.486 42.0894 58.3784 42.02 58.4093 41.939C58.4342 41.874 58.3909 41.8435 58.2733 41.8435C58.1782 41.8435 58.047 41.7809 57.9812 41.7043C57.9154 41.6276 57.8123 41.5647 57.7521 41.5647C57.6765 41.5585 57.605 41.5279 57.5483 41.4776C57.4733 41.4082 57.464 41.4082 57.5034 41.4776C57.5306 41.5257 57.5194 41.5647 57.4789 41.5647C57.4384 41.5647 57.4051 41.5089 57.4051 41.4411C57.4051 41.3372 57.3433 41.3175 57.0219 41.3191C56.7515 41.3203 56.6383 41.2938 56.6383 41.2296C56.6383 41.1795 56.607 41.1578 56.5689 41.1815C56.5304 41.2052 56.4991 41.1935 56.4991 41.1554C56.4991 41.1125 56.0534 41.0872 55.3143 41.0888C54.5576 41.0904 54.1299 41.1169 54.1299 41.1622C54.1299 41.2032 54.0846 41.1959 54.0236 41.1454C53.9349 41.0716 53.9249 41.076 53.9614 41.1719M72.4858 41.1285C72.5467 41.1895 72.3489 41.34 72.2089 41.3384C71.8017 41.3336 71.6777 41.3604 71.7106 41.4459C71.7339 41.5065 71.6729 41.5418 71.5264 41.5522C71.185 41.5771 71.0498 41.6373 71.0911 41.7452C71.1196 41.8186 71.0654 41.8435 70.8789 41.8435C70.6642 41.8435 70.6409 41.8583 70.7152 41.9482C70.8046 42.0557 70.7665 42.0722 70.4231 42.0714C70.3581 42.0714 70.2879 42.1159 70.267 42.1701C70.2437 42.2311 70.259 42.2503 70.3071 42.2206C70.3541 42.1918 70.3721 42.211 70.3525 42.2692C70.3344 42.3226 70.2598 42.3675 70.1868 42.3695C70.1133 42.3711 70.0612 42.4104 70.0708 42.4566C70.08 42.5027 70.0524 42.5404 70.009 42.5404C69.9043 42.5404 69.6636 42.8221 69.7073 42.8931C69.7262 42.9236 69.7053 42.9717 69.6604 42.9994C69.6062 43.0327 69.5958 43.0167 69.6295 42.9521C69.6575 42.8979 69.6311 42.9148 69.5705 42.9894C69.5103 43.0636 69.461 43.1017 69.461 43.0736C69.461 43.0456 69.4172 43.0632 69.3635 43.1126C69.3101 43.1619 69.2812 43.2269 69.2997 43.2574C69.3181 43.2875 69.2676 43.4372 69.1877 43.5904C69.1079 43.7437 69.0429 43.9182 69.0429 43.9784C69.0429 44.0474 69.004 44.0735 68.9382 44.0482C68.8808 44.0261 68.8298 44.0466 68.8246 44.0931C68.7937 44.3909 68.7793 44.4731 68.7347 44.6135C68.7075 44.6998 68.6597 44.7704 68.6288 44.7704C68.5979 44.7704 68.5642 44.9979 68.5542 45.2755C68.5442 45.5536 68.5325 45.8621 68.5281 45.9616C68.5237 46.0611 68.4828 46.1875 68.437 46.2425C68.3191 46.3849 68.3456 46.7837 68.4784 46.8616C68.5682 46.9137 68.5702 46.927 68.4888 46.9286C68.4102 46.9302 68.4061 46.9494 68.4711 47.0144C68.5233 47.0662 68.555 47.3238 68.555 47.6957C68.555 48.1904 68.5771 48.3124 68.6834 48.4035C68.7206 48.4388 68.7502 48.4814 68.7702 48.5287C68.7903 48.576 68.8003 48.6269 68.7997 48.6783C68.7929 48.769 68.8451 48.905 68.9153 48.9804C68.9855 49.0554 69.0429 49.1931 69.0429 49.2857C69.0429 49.4069 69.0722 49.443 69.1472 49.4141C69.2411 49.3784 69.3001 49.6204 69.2599 49.8747C69.2463 49.963 69.3775 49.9329 69.4116 49.8402C69.4293 49.7921 69.4666 49.839 69.4947 49.9445C69.5227 50.0501 69.5893 50.1363 69.6427 50.1363C69.6961 50.1363 69.7434 50.1676 69.7482 50.2057C69.753 50.2443 69.7611 50.3149 69.7659 50.3626C69.7707 50.4108 69.8108 50.4497 69.8549 50.4497C69.8991 50.4497 70.0126 50.5283 70.1077 50.6242C70.4736 50.9937 70.6357 51.1117 70.7774 51.1117C70.9053 51.1117 70.9531 51.1767 70.9362 51.328C70.9334 51.3508 71.0265 51.3725 71.1433 51.3757C71.26 51.3789 71.3916 51.4291 71.4362 51.4868C71.4803 51.5446 71.6263 51.6016 71.7603 51.6132C71.9365 51.6285 72.0019 51.6666 71.9959 51.7496C71.9866 51.8772 75.2646 51.9306 75.5583 51.8074C75.6915 51.7517 75.6919 51.7484 75.5643 51.744C75.2145 51.7312 75.5916 51.6188 76.0289 51.6056C76.1393 51.602 76.2131 51.5639 76.2031 51.5157C76.1934 51.4696 76.2171 51.4275 76.2552 51.4226C76.388 51.405 76.6039 51.2943 76.6733 51.208C76.7118 51.1607 76.8057 51.1113 76.8823 51.0993C76.959 51.0872 77.168 50.9279 77.3465 50.7462C77.5251 50.564 77.702 50.4152 77.7397 50.4152C77.7775 50.4152 77.8276 50.3369 77.8517 50.2411C77.8758 50.1456 77.9339 50.0749 77.9813 50.0846C78.0286 50.0938 78.0595 50.0621 78.0499 50.0144C78.0403 49.9662 78.0655 49.9273 78.1061 49.9273C78.1466 49.9273 78.1606 49.896 78.1369 49.8575C78.0984 49.7953 78.1879 49.758 78.3259 49.7788C78.3532 49.7829 78.3588 49.7419 78.338 49.6878C78.3171 49.6336 78.3576 49.5317 78.4278 49.4607C78.4976 49.3897 78.5659 49.2553 78.5795 49.1614C78.5927 49.0675 78.6646 48.9379 78.7384 48.8737C78.8126 48.8095 78.8684 48.7301 78.8628 48.6976C78.8307 48.5194 78.8784 48.2546 78.9422 48.2546C78.9831 48.2546 78.994 48.2911 78.9663 48.3353C78.9382 48.381 78.947 48.397 78.9871 48.3722C79.1171 48.2919 79.1079 44.9867 78.9775 44.9365C78.9049 44.9088 78.8684 44.8057 78.8684 44.6276C78.8684 44.4807 78.8367 44.3407 78.7978 44.3166C78.7588 44.2926 78.7448 44.2436 78.7669 44.2079C78.7889 44.1726 78.7649 44.1433 78.7131 44.1433C78.6617 44.1433 78.614 44.0731 78.6076 43.9876C78.6012 43.9018 78.5634 43.8207 78.5233 43.8075C78.4832 43.7942 78.4503 43.7437 78.4503 43.6951C78.4503 43.5379 78.2509 43.2073 78.0342 43.0046C77.9179 42.8959 77.8376 42.7828 77.8557 42.7535C77.8737 42.7242 77.8079 42.6636 77.7096 42.6187C77.5913 42.5649 77.5447 42.5007 77.572 42.4297C77.6029 42.3494 77.5805 42.3326 77.4826 42.3639C77.3991 42.3904 77.3365 42.3651 77.3092 42.2941C77.286 42.2331 77.235 42.2026 77.1965 42.2267C77.158 42.2503 77.1263 42.221 77.1263 42.1613C77.1263 42.1011 77.0677 42.0525 76.9947 42.0525C76.9221 42.0525 76.8446 42.0056 76.8225 41.9482C76.8005 41.8904 76.7034 41.8435 76.6067 41.8435C76.506 41.8435 76.3932 41.7837 76.3435 41.7043C76.2957 41.6276 76.2031 41.5647 76.1381 41.5647C76.0727 41.5647 75.974 41.4997 75.9182 41.4202C75.8536 41.3283 75.7998 41.3035 75.7701 41.3516C75.7569 41.3718 75.7362 41.386 75.7125 41.3911C75.6889 41.3962 75.6642 41.3918 75.6438 41.3789C75.6004 41.352 75.4809 41.3259 75.3782 41.3211C75.2754 41.3163 75.1362 41.2573 75.0688 41.1895C74.9701 41.0912 74.9344 41.0852 74.8875 41.159C74.8509 41.216 74.8285 41.2212 74.8277 41.1719C74.8269 41.1161 74.479 41.0928 73.6389 41.0932C72.9853 41.0932 72.4665 41.1093 72.4858 41.1285M59.9428 41.35C59.9267 41.366 59.9139 41.7637 59.9139 42.2335C59.9139 43.3846 59.7971 43.3072 61.5232 43.3072H62.9134L62.9162 47.4357C62.919 52.2395 62.9086 51.8243 63.0266 51.7789C63.0775 51.7593 63.1193 51.7749 63.1193 51.813C63.1193 51.8568 63.4884 51.8796 64.1063 51.8744C64.7261 51.8688 65.0563 51.8419 64.9946 51.8022C64.9135 51.75 64.9123 51.7288 64.9893 51.679C65.0407 51.6461 65.08 51.5988 65.0764 51.5743C65.0732 51.5498 65.0708 49.6797 65.0708 47.4185V43.3072H66.4602C67.7875 43.3072 67.8549 43.3003 67.9516 43.1623C68.0145 43.072 68.0699 43.046 68.0988 43.0929C68.1132 43.1143 68.1324 43.132 68.1548 43.1447C68.1772 43.1575 68.2023 43.1649 68.228 43.1663C68.2834 43.1659 68.2866 43.1483 68.238 43.1142C68.1907 43.0809 68.1782 42.7888 68.2031 42.2788C68.2244 41.8479 68.218 41.4948 68.1891 41.4948C68.1602 41.4952 68.1369 41.4559 68.1369 41.4082C68.1369 41.3251 60.0254 41.2673 59.9428 41.35M80.4712 41.4082C80.4712 41.4559 80.448 41.4952 80.4191 41.4952C80.3136 41.4952 80.4267 51.6361 80.5338 51.7653C80.6177 51.866 80.7605 51.8796 81.5714 51.8628L82.5119 51.8435L82.5331 51.6409C82.5452 51.5294 82.5873 51.4182 82.6266 51.3938C82.6723 51.3657 82.7056 50.7221 82.7173 49.6452L82.7361 47.9413L83.3753 47.9212C83.9663 47.9027 84.0176 47.912 84.0594 48.0432C84.0842 48.121 84.1529 48.1852 84.2118 48.1852C84.2776 48.1852 84.3037 48.2245 84.2796 48.2875C84.2584 48.3437 84.2712 48.4087 84.3081 48.4315C84.3454 48.4544 84.3595 48.5006 84.339 48.5335C84.3186 48.5664 84.3386 48.6161 84.3836 48.6438C84.4385 48.6779 84.4469 48.6626 84.4092 48.5964C84.3675 48.523 84.3743 48.5178 84.4369 48.5752C84.4827 48.6177 84.5252 48.7196 84.5316 48.8019C84.5376 48.8841 84.5693 48.9515 84.6018 48.9515C84.6343 48.9515 84.6415 48.9828 84.6179 49.0213C84.5942 49.0595 84.6235 49.0912 84.6833 49.0912C84.743 49.0912 84.792 49.1184 84.792 49.1517C84.792 49.2051 84.9565 49.5096 85.2301 49.9622C85.2767 50.0388 85.3461 50.1243 85.3842 50.1528C85.4271 50.1841 85.4191 50.2041 85.3641 50.2049C85.3064 50.2057 85.3252 50.2603 85.4163 50.3586C85.4945 50.4425 85.5583 50.5484 85.5583 50.5937C85.5583 50.6395 85.6057 50.7157 85.663 50.7634C85.7204 50.8112 85.7674 50.9091 85.7674 50.9809C85.7674 51.0531 85.8147 51.1117 85.8721 51.1117C85.9295 51.1117 85.9764 51.1602 85.9764 51.2196C85.9764 51.2786 86.0542 51.405 86.1493 51.5001C86.244 51.5948 86.3227 51.6875 86.3235 51.7059C86.3243 51.724 86.3251 51.7685 86.3251 51.8046C86.3251 51.8804 88.4816 51.8977 88.6008 51.8227C88.7288 51.742 88.6786 51.2557 88.5374 51.2108C88.4291 51.1763 88.3873 51.0491 88.397 50.7815C88.3986 50.7342 88.3757 50.7105 88.3456 50.7289C88.3159 50.747 88.2397 50.6832 88.1763 50.5865C88.1129 50.4898 88.0311 50.4292 87.9945 50.4517C87.9576 50.4746 87.9279 50.3975 87.9279 50.2796C87.9279 50.1367 87.8934 50.0665 87.8232 50.0665C87.7241 50.0665 87.6904 49.9903 87.7117 49.8138C87.7169 49.7704 87.6579 49.7183 87.5805 49.6982C87.4862 49.6737 87.4401 49.6035 87.4401 49.4848C87.4401 49.3877 87.4039 49.2857 87.3594 49.2585C87.3056 49.2252 87.2976 49.2412 87.3349 49.3066C87.3791 49.3836 87.3718 49.3869 87.3012 49.3215C87.2519 49.2761 87.2078 49.1453 87.2037 49.0314C87.1997 48.9174 87.1845 48.836 87.1704 48.85C87.1219 48.8978 86.9522 48.6827 86.9522 48.5732C86.9522 48.513 86.9072 48.4636 86.8527 48.4636C86.7977 48.4636 86.7419 48.393 86.7291 48.3072C86.7158 48.2209 86.6717 48.1563 86.6308 48.1639C86.5899 48.1716 86.5048 48.0696 86.4418 47.9372L86.3275 47.6973L86.5176 47.6861C86.6228 47.6801 86.7496 47.6773 86.8001 47.6793C86.8507 47.6817 86.8743 47.6656 86.8531 47.6444C86.7869 47.5781 86.957 47.4245 87.0549 47.4622C87.0805 47.4715 87.1084 47.472 87.1343 47.4635C87.1602 47.4551 87.1825 47.4382 87.1977 47.4157C87.2354 47.3551 87.2639 47.3583 87.3085 47.4285C87.3522 47.4975 87.3686 47.4807 87.3694 47.3663C87.3698 47.278 87.4136 47.2094 87.4689 47.2094C87.5235 47.2094 87.6322 47.1232 87.7109 47.0176C87.8064 46.8897 87.8569 46.8608 87.8629 46.9306C87.8678 46.9884 87.8946 46.9567 87.9223 46.8612C87.9496 46.7653 88.017 46.6898 88.072 46.6935C88.1354 46.6979 88.1775 46.6216 88.1875 46.4844C88.1964 46.3661 88.2513 46.2341 88.3095 46.1915C88.3749 46.1438 88.4158 46.0034 88.4158 45.8256C88.4158 45.6667 88.4487 45.5367 88.4892 45.5367C88.5302 45.5367 88.541 45.5732 88.5133 45.6174C88.4824 45.6675 88.4945 45.6788 88.5454 45.6475C88.5904 45.6198 88.6088 45.5676 88.5867 45.5319C88.5647 45.4966 88.5719 45.428 88.6024 45.3803C88.7352 45.1724 88.6963 43.9868 88.5522 43.862C88.4576 43.7798 88.4158 43.655 88.4158 43.4536C88.4158 43.2598 88.3809 43.1499 88.3111 43.123C88.2537 43.1009 88.2064 43.0046 88.2064 42.9087C88.2064 42.806 88.135 42.6784 88.0319 42.597C87.9356 42.5216 87.8746 42.4309 87.8962 42.3956C87.9183 42.3603 87.9043 42.3314 87.8653 42.3314C87.7763 42.3314 87.4019 41.9651 87.4228 41.8985C87.4312 41.8708 87.3951 41.8652 87.3422 41.8852C87.2896 41.9057 87.1724 41.8483 87.0818 41.7576C86.906 41.5819 86.8727 41.5647 86.7042 41.5647C86.6444 41.5647 86.6135 41.5358 86.6356 41.5001C86.6577 41.4643 86.6392 41.4122 86.5943 41.3845C86.5433 41.3532 86.5313 41.3644 86.5622 41.4146C86.6256 41.5173 86.5654 41.5169 86.3728 41.4134C86.1457 41.2918 80.4716 41.2866 80.4712 41.4082M90.0424 41.3937C90.0271 41.4339 90.0075 43.8043 89.999 46.6618L89.9834 51.8568L90.9471 51.8716C91.6067 51.882 91.9418 51.8608 92.0096 51.8046C92.093 51.7352 92.1111 51.1434 92.1211 48.1242C92.1279 46.1454 92.1456 44.6677 92.1608 44.8402C92.1761 45.0147 92.2326 45.1784 92.288 45.2093C92.343 45.2398 92.3879 45.3586 92.3879 45.4729C92.3879 45.5893 92.4316 45.6976 92.4878 45.7193C92.5142 45.7292 92.5356 45.7492 92.5472 45.7748C92.5589 45.8005 92.5599 45.8297 92.55 45.8561C92.5291 45.9107 92.5436 45.9552 92.5817 45.9552C92.6198 45.9552 92.6716 46.0647 92.6968 46.1992C92.7221 46.3332 92.7843 46.4427 92.8353 46.4427C92.8991 46.4427 92.9255 46.5354 92.9207 46.7392C92.9155 46.9587 92.9392 47.0297 93.011 47.014C93.0917 46.996 93.0929 47.0112 93.017 47.1027C92.9392 47.1962 92.9428 47.2062 93.0399 47.1689C93.1282 47.1348 93.1542 47.1665 93.1542 47.3065C93.1542 47.5886 93.155 47.5898 93.2923 47.6407C93.3914 47.6772 93.4142 47.7386 93.3894 47.8975C93.3641 48.0576 93.3898 48.1246 93.4993 48.1832C93.5928 48.2333 93.6421 48.3292 93.6421 48.4616C93.6421 48.7329 93.7645 49.0402 93.8512 48.9864C93.8949 48.9592 93.913 49.049 93.8989 49.226C93.8841 49.4133 93.9049 49.5092 93.9611 49.5092C94.0618 49.5092 94.13 49.6665 94.13 49.9004C94.13 49.9943 94.177 50.089 94.2347 50.1111C94.2925 50.1335 94.3591 50.2736 94.3832 50.4228C94.4093 50.5849 94.465 50.6936 94.522 50.6936C94.5746 50.6936 94.6139 50.7173 94.6095 50.7462C94.5617 51.0483 94.6319 51.3376 94.7611 51.3713C94.8442 51.3934 94.8895 51.4479 94.8687 51.5021C94.849 51.5534 94.8634 51.614 94.9008 51.6373C94.9381 51.6602 94.9525 51.7047 94.9329 51.7364C94.8763 51.8279 95.0845 51.8784 95.5182 51.8784C95.9307 51.8784 96.0811 51.7565 96.0811 51.4222C96.0811 51.3641 96.1478 51.3203 96.238 51.3199C96.3592 51.3191 96.372 51.3043 96.2946 51.2553C96.2131 51.204 96.2111 51.1727 96.2834 51.0852C96.3319 51.0266 96.3524 50.9472 96.3287 50.9083C96.3046 50.8698 96.3492 50.7743 96.427 50.6964C96.5052 50.6182 96.569 50.5388 96.569 50.5195V50.3081C96.569 50.2057 96.62 50.1107 96.691 50.0818C96.758 50.0541 96.8154 49.9766 96.8186 49.9096C96.8382 49.5016 96.8559 49.4394 96.9522 49.4394C97.0252 49.4394 97.0569 49.366 97.0569 49.1955C97.0569 49.0406 97.1103 48.8982 97.203 48.8055C97.2993 48.7092 97.3382 48.6013 97.3165 48.4893C97.2964 48.3834 97.3265 48.2875 97.3972 48.2349C97.5179 48.1439 97.5328 48.1013 97.558 47.7695C97.5701 47.6102 97.6018 47.5649 97.6792 47.5946C97.737 47.6167 97.7627 47.6135 97.7366 47.5874C97.7105 47.5609 97.7193 47.4827 97.7566 47.4128C97.794 47.3434 97.8309 47.2086 97.8385 47.1135C97.8465 47.0184 97.8822 46.9462 97.9179 46.953C97.9536 46.9599 97.9966 46.8576 98.013 46.7252C98.0295 46.5932 98.0957 46.4467 98.1595 46.4002C98.2237 46.3532 98.2534 46.2922 98.2261 46.265C98.1984 46.2373 98.2437 46.1193 98.3268 46.0026C98.4098 45.8858 98.4403 45.8136 98.3946 45.8421C98.2859 45.9091 98.2895 45.8734 98.415 45.6318C98.4724 45.5223 98.5194 45.3742 98.5198 45.3028C98.5202 45.2146 98.5547 45.1869 98.6285 45.215C98.6899 45.2386 98.7184 45.227 98.6943 45.1881C98.671 45.1508 98.6835 45.0649 98.722 44.9975C98.7693 44.914 98.7954 45.9199 98.803 48.1503C98.8094 49.9518 98.8215 51.5193 98.8299 51.6345L98.8456 51.8435L99.6761 51.8644C100.65 51.8889 100.97 51.8475 100.915 51.7051C100.894 51.6505 100.896 51.5763 100.918 51.5398C100.948 51.4921 100.981 43.5334 100.96 41.4603C100.959 41.287 98.275 41.2529 98.0696 41.4234C98.0106 41.4724 97.9621 41.4848 97.9617 41.4515C97.9585 41.2782 97.8253 41.6321 97.8245 41.8154C97.8236 41.9699 97.7787 42.0529 97.6664 42.1071C97.5801 42.1484 97.55 42.1845 97.5994 42.1873C97.666 42.191 97.6704 42.2263 97.617 42.3262C97.5773 42.4 97.5653 42.5135 97.5901 42.5781C97.6271 42.6744 97.6046 42.6881 97.4682 42.6536C97.3759 42.6303 97.3414 42.6299 97.3907 42.6524C97.4501 42.6796 97.4581 42.7206 97.414 42.7739C97.3771 42.8185 97.3366 42.9641 97.3237 43.0981C97.3109 43.2321 97.2668 43.3356 97.225 43.3284C97.1837 43.3208 97.1456 43.3521 97.1408 43.3978C97.1155 43.6362 97.0284 43.911 96.9486 44.0037C96.8992 44.0614 96.8483 44.2179 96.8358 44.3523C96.823 44.4863 96.7829 44.5858 96.746 44.5734C96.6625 44.5453 96.5803 44.7451 96.5738 44.9919C96.571 45.0946 96.5221 45.2254 96.4643 45.2832C96.4069 45.3405 96.36 45.4838 96.36 45.6017C96.36 45.7337 96.3243 45.8156 96.2669 45.8156C96.216 45.8156 96.169 45.8549 96.163 45.9026C96.157 45.9508 96.1389 46.0684 96.1225 46.1642C96.1071 46.2508 96.0953 46.3379 96.0872 46.4254C96.084 46.4732 96.0342 46.5125 95.9768 46.5125C95.8994 46.5125 95.8721 46.594 95.8721 46.8263C95.8721 47.0337 95.8436 47.134 95.7883 47.1224C95.7773 47.1201 95.766 47.1202 95.7551 47.1225C95.7442 47.1249 95.7339 47.1295 95.7249 47.1361C95.7159 47.1427 95.7083 47.151 95.7027 47.1607C95.6971 47.1704 95.6936 47.1811 95.6924 47.1922C95.6861 47.2394 95.6756 47.286 95.6611 47.3314C95.6308 47.4189 95.6108 47.5097 95.6013 47.6018C95.5784 47.8293 95.3144 47.7491 95.3144 47.5144C95.3144 47.3719 95.2747 47.2592 95.2157 47.2367C95.1595 47.2154 95.0969 47.0513 95.0701 46.856C95.0388 46.6297 94.9894 46.5125 94.9248 46.5125C94.8566 46.5125 94.8269 46.4258 94.8269 46.2264C94.8269 45.9825 94.8089 45.9472 94.705 45.9865C94.6071 46.0238 94.6002 46.0158 94.6701 45.9452C94.774 45.8405 94.7868 45.7197 94.6873 45.7807C94.6267 45.8184 94.5846 45.6772 94.6095 45.5195C94.6139 45.4906 94.5898 45.4673 94.5557 45.4673C94.5216 45.4673 94.4983 45.4124 94.5035 45.3454C94.5088 45.2784 94.4803 45.229 94.4402 45.2362C94.3996 45.243 94.3591 45.1359 94.3499 44.9979C94.3406 44.8595 94.2873 44.7126 94.2315 44.6713C94.1757 44.63 94.1236 44.502 94.1156 44.3872C94.1075 44.2721 94.0433 44.126 93.9731 44.0631C93.8776 43.9768 93.8684 43.9387 93.9354 43.9114C94.0044 43.8841 94.0048 43.8741 93.9382 43.8701C93.8905 43.8669 93.8512 43.783 93.8512 43.6839C93.8512 43.5844 93.7886 43.4235 93.7119 43.326C93.6353 43.2285 93.5723 43.0937 93.5723 43.0263C93.5723 42.9589 93.5254 42.8859 93.468 42.8638C93.399 42.8373 93.3633 42.7282 93.3633 42.5424C93.3633 42.388 93.33 42.2616 93.2895 42.2616C93.2489 42.2616 93.2337 42.2331 93.2553 42.1978C93.277 42.1629 93.261 42.1232 93.22 42.1095C93.1787 42.0955 93.1274 41.9494 93.1049 41.7841C93.0816 41.6096 93.0431 41.5193 93.0126 41.5687C92.9769 41.6264 92.9456 41.6064 92.9135 41.5045C92.8874 41.4226 92.8136 41.3536 92.749 41.3512C91.7054 41.3091 90.0648 41.3352 90.0424 41.3937M74.4401 43.1398C74.4858 43.2024 74.6652 43.2674 74.8485 43.2883C75.0283 43.3084 75.1751 43.3501 75.1751 43.381C75.1751 43.4119 75.2345 43.4556 75.3071 43.4789C75.3794 43.5017 75.454 43.5788 75.4724 43.6498C75.4981 43.7465 75.5563 43.7718 75.7068 43.7517C75.8167 43.7369 75.8729 43.7413 75.8311 43.7617C75.7866 43.7834 75.8512 43.901 75.9876 44.0458C76.1156 44.1814 76.2211 44.3451 76.2215 44.4093C76.2223 44.5032 76.2348 44.5076 76.2837 44.4302C76.3315 44.3543 76.3547 44.3656 76.3916 44.4819C76.4173 44.5634 76.4839 44.6753 76.5393 44.7307C76.5947 44.7861 76.6472 44.9666 76.6568 45.1319C76.6705 45.3742 76.6974 45.4284 76.7957 45.412C76.9068 45.3931 76.9172 45.479 76.9172 46.3994C76.9172 47.4104 76.8867 47.66 76.7708 47.5882C76.7086 47.5501 76.703 47.5705 76.6829 47.9063C76.6701 48.1226 76.5802 48.2699 76.4944 48.2169C76.4586 48.1948 76.4294 48.2915 76.4294 48.4311C76.4294 48.6273 76.3973 48.6943 76.2901 48.7224C76.2135 48.7425 76.1509 48.8023 76.1509 48.8552C76.1509 48.9082 76.1036 48.9515 76.0462 48.9515C75.988 48.9515 75.9419 49.0137 75.9419 49.0912C75.9419 49.1678 75.8969 49.2304 75.842 49.2304C75.787 49.2304 75.7216 49.2954 75.6963 49.3748C75.671 49.4547 75.6333 49.5028 75.6125 49.4819C75.592 49.4611 75.519 49.4743 75.4504 49.5108C75.3633 49.5574 75.3152 49.5514 75.2907 49.4912C75.2714 49.4434 75.2534 49.4751 75.2502 49.5614C75.2474 49.6517 75.2008 49.7183 75.1402 49.7183C74.9645 49.7183 74.9348 49.7271 74.8309 49.8113C74.7502 49.8763 74.741 49.8719 74.7835 49.7877C74.8132 49.7303 74.788 49.7435 74.7282 49.8178C74.5741 50.0071 72.9776 50.022 72.8412 49.835C72.7895 49.7648 72.6599 49.7183 72.5146 49.7183C72.3301 49.7183 72.2266 49.6645 72.0697 49.488C71.9569 49.3616 71.8101 49.2368 71.7431 49.2115C71.6761 49.1858 71.6211 49.1152 71.6211 49.0542C71.6211 48.9933 71.5898 48.9628 71.5513 48.9864C71.5132 49.0101 71.4819 48.9828 71.4819 48.9255C71.4819 48.8685 71.4209 48.8023 71.3467 48.7786C71.2572 48.7501 71.2043 48.6602 71.1898 48.5126C71.1762 48.371 71.13 48.2895 71.0638 48.2891C70.9896 48.2883 70.9591 48.2125 70.9591 48.0267C70.9591 47.8389 70.9246 47.7543 70.8371 47.7266C70.6927 47.6809 70.6462 45.432 70.7886 45.3847C70.8291 45.371 70.8712 45.3137 70.8829 45.2571C70.8941 45.2001 70.9254 45.1034 70.9519 45.042C70.9788 44.9806 70.9916 44.888 70.98 44.8362C70.9683 44.7845 71.0061 44.7403 71.0638 44.7387C71.1212 44.7367 71.1689 44.6725 71.1702 44.5959C71.171 44.5064 71.2155 44.4603 71.2945 44.4667C71.3976 44.4755 71.4029 44.4595 71.3274 44.3668C71.2508 44.2725 71.256 44.2633 71.3635 44.3034C71.4338 44.3299 71.4715 44.3226 71.4494 44.2865C71.4277 44.2512 71.4422 44.2027 71.4819 44.1782C71.5011 44.1655 71.5145 44.1457 71.5193 44.1232C71.524 44.1007 71.5197 44.0772 71.5072 44.0578C71.4811 44.0165 71.4923 44.0021 71.5312 44.0261C71.5706 44.0506 71.6616 44.0029 71.7339 43.9206C71.8061 43.8384 71.8209 43.7966 71.7672 43.8283C71.701 43.8673 71.6853 43.86 71.719 43.8055C71.7463 43.7613 71.8298 43.7252 71.904 43.7252C71.9782 43.7252 72.0392 43.6943 72.0392 43.6566C72.0392 43.6193 72.1186 43.5683 72.2153 43.5443C72.312 43.5198 72.422 43.4428 72.4597 43.3726C72.5026 43.2923 72.5824 43.2558 72.6767 43.2743C72.7586 43.2899 72.8593 43.2823 72.8998 43.257C72.9407 43.2317 73.0535 43.2028 73.1502 43.1924C73.2473 43.182 73.3375 43.141 73.3508 43.1009C73.3925 42.9757 74.345 43.0098 74.4401 43.1398M85.4749 43.3701C85.4889 43.4119 85.574 43.4464 85.6638 43.4464C85.8332 43.4464 86.0462 43.6097 86.0462 43.7397C86.0462 43.7806 86.0968 43.8512 86.1586 43.8965C86.2432 43.9583 86.2705 44.0939 86.2685 44.445C86.2665 44.762 86.2898 44.8968 86.3411 44.8651C86.386 44.837 86.3961 44.8511 86.366 44.9C86.3158 44.981 86.2424 45.288 86.2356 45.4437C86.2336 45.4882 86.1738 45.5131 86.1024 45.4994C86.0314 45.4858 85.99 45.5022 86.0109 45.5359C86.0574 45.611 85.7674 45.824 85.6863 45.7739C85.6542 45.7538 85.6281 45.7835 85.6281 45.8389C85.6281 46.0058 85.4673 46.0246 84.0574 46.0246H82.7069L82.6868 44.6484L82.6663 43.2722L84.0582 43.2831C84.9942 43.2903 85.458 43.3188 85.4749 43.3701" fill="#7A8487"/>
<path fill-rule="evenodd" clip-rule="evenodd" d="M51.6339 10.8094C51.5649 10.8375 51.5469 13.3892 51.5469 23.2428V35.6413H57.1917V27.0002H58.9337C60.6297 27.0002 60.6758 27.0039 60.6758 27.1395C60.6758 27.2169 60.7224 27.2791 60.7806 27.2791C60.8508 27.2791 60.8849 27.3493 60.8849 27.4945C60.8849 27.6514 60.923 27.72 61.0245 27.7465C61.1292 27.7738 61.1637 27.8416 61.1637 28.0189C61.1637 28.1818 61.1958 28.2545 61.2685 28.2545C61.3387 28.2545 61.3728 28.3251 61.3728 28.4703C61.3728 28.6272 61.4109 28.6958 61.5124 28.7223C61.6111 28.748 61.6516 28.8174 61.6516 28.9594C61.6516 29.0701 61.6837 29.1604 61.723 29.1604C61.7624 29.1604 61.8245 29.2399 61.8615 29.3365C61.898 29.4332 61.9758 29.5307 62.034 29.5528C62.0946 29.5761 62.1395 29.6792 62.1395 29.7951C62.1395 29.9279 62.1752 29.9966 62.2438 29.9966C62.3144 29.9966 62.3485 30.0672 62.3485 30.2124C62.3485 30.3693 62.3863 30.4379 62.4878 30.4644C62.5869 30.4905 62.6274 30.5595 62.6274 30.7039C62.6274 30.8162 62.6719 30.9242 62.7273 30.9454C62.7827 30.9667 62.8477 31.0754 62.8725 31.1874C62.897 31.2989 62.9431 31.3904 62.9748 31.3904C63.0282 31.3904 63.2517 31.8177 63.3484 32.1046C63.3708 32.172 63.4375 32.2265 63.496 32.2265C63.5687 32.2265 63.6028 32.2947 63.6028 32.438C63.6028 32.5616 63.6461 32.6659 63.7075 32.6891C63.7648 32.7112 63.8118 32.8043 63.8118 32.8958C63.8118 32.9869 63.8748 33.1008 63.9514 33.1489C64.0345 33.2007 64.0906 33.3114 64.0906 33.4234C64.0906 33.5498 64.136 33.6256 64.2299 33.6553C64.3197 33.6838 64.3695 33.7608 64.3695 33.8711C64.3695 33.9658 64.4164 34.0609 64.4738 34.083C64.5316 34.1051 64.5785 34.1789 64.5785 34.2471C64.5785 34.3149 64.6411 34.3871 64.7177 34.4072C64.8193 34.4337 64.857 34.5023 64.857 34.6591C64.857 34.8044 64.8915 34.8746 64.9617 34.8746C65.0347 34.8746 65.0664 34.9484 65.0664 35.1185C65.0664 35.3159 65.0929 35.3625 65.2056 35.3625C65.2983 35.3625 65.3449 35.409 65.3449 35.5021C65.3449 35.6393 65.3914 35.6413 68.5157 35.6413H71.6866V35.2931C71.6866 35.0295 71.6609 34.9444 71.5818 34.9444C71.5116 34.9444 71.4775 34.8742 71.4775 34.729C71.4775 34.5721 71.4394 34.5035 71.3379 34.477C71.2613 34.4569 71.1987 34.3947 71.1987 34.339C71.1987 34.2832 71.1517 34.1905 71.094 34.1331C71.0323 34.0655 70.9955 33.9789 70.9896 33.8876C70.989 33.8469 70.9751 33.8075 70.9499 33.7755C70.9248 33.7434 70.8898 33.7205 70.8504 33.7103C70.7453 33.683 70.7108 33.6152 70.7108 33.4382C70.7108 33.2749 70.6787 33.2023 70.6065 33.2023C70.5787 33.2023 70.5521 33.1913 70.5324 33.1716C70.5128 33.152 70.5017 33.1254 70.5017 33.0976C70.5017 33.0402 70.4392 32.9307 70.3625 32.854C70.2859 32.7774 70.2229 32.6663 70.2229 32.6077C70.2208 32.576 70.2099 32.5455 70.1915 32.5195C70.1731 32.4936 70.1478 32.4733 70.1186 32.4609C70.0612 32.4388 70.0139 32.3642 70.0139 32.2947C70.0139 32.0937 69.9376 31.9481 69.8321 31.9481C69.7787 31.9481 69.7354 31.8875 69.7354 31.8137C69.7354 31.7395 69.6881 31.6319 69.6307 31.5746C69.5733 31.5172 69.526 31.4209 69.526 31.3607C69.526 31.2977 69.467 31.2512 69.3868 31.2512C69.274 31.2512 69.2475 31.2046 69.2475 31.0072C69.2475 30.8098 69.2211 30.7633 69.1079 30.7633C68.9992 30.7633 68.9687 30.7167 68.9687 30.5518C68.9687 30.4287 68.9254 30.324 68.864 30.3007C68.8066 30.2786 68.7596 30.2012 68.7596 30.1286C68.7596 30.0431 68.7107 29.9966 68.6204 29.9966C68.5073 29.9966 68.4808 29.9504 68.4808 29.753C68.4808 29.5825 68.4495 29.5091 68.3765 29.5091C68.3187 29.5091 68.2718 29.4489 68.2718 29.3751C68.2718 29.1676 68.1967 29.0212 68.09 29.0212C68.0366 29.0212 67.9929 28.9582 67.9929 28.8816C67.9929 28.8041 67.9468 28.7423 67.8886 28.7423C67.818 28.7423 67.7839 28.6721 67.7839 28.5269C67.7839 28.3696 67.7462 28.3014 67.6447 28.2749C67.5476 28.2492 67.5054 28.1798 67.5054 28.045C67.5054 27.9371 67.4589 27.8336 67.4007 27.8111C67.3714 27.7987 67.3461 27.7784 67.3277 27.7525C67.3093 27.7266 67.2984 27.696 67.2964 27.6643C67.2964 27.6041 67.2354 27.5575 67.1568 27.5575C67.044 27.5575 67.0175 27.5114 67.0175 27.3136C67.0175 27.1523 66.9846 27.0701 66.9209 27.0701C66.8659 27.0701 66.8045 26.9673 66.7792 26.8325C66.7547 26.7021 66.6885 26.5778 66.6324 26.5561C66.4827 26.4987 66.5068 26.3033 66.6633 26.3033C66.8711 26.3033 67.0175 26.2283 67.0175 26.1216C67.0175 26.0574 67.0994 26.0245 67.2615 26.0245C67.4316 26.0245 67.5054 25.9932 67.5054 25.9202C67.5054 25.8495 67.5756 25.8154 67.7209 25.8154C67.8778 25.8154 67.9464 25.7777 67.9729 25.6762C67.9985 25.5783 68.0679 25.5366 68.2068 25.5366C68.3155 25.5366 68.4294 25.4953 68.4599 25.4443C68.4908 25.3937 68.5707 25.332 68.6377 25.3071C68.7047 25.2826 68.7596 25.2144 68.7596 25.1558C68.7596 25.0968 68.8066 25.0491 68.864 25.0491C68.8917 25.049 68.9183 25.0379 68.9379 25.0183C68.9575 24.9987 68.9686 24.9721 68.9687 24.9444C68.9687 24.8862 69.0309 24.8401 69.1091 24.8401C69.2347 24.8401 69.3583 24.7305 69.8738 24.1628C69.9509 24.0781 70.0139 23.9606 70.0139 23.9016C70.0139 23.8426 70.0612 23.7945 70.1186 23.7945C70.1462 23.7945 70.1728 23.7835 70.1923 23.7639C70.2119 23.7444 70.2229 23.7178 70.2229 23.6902C70.2229 23.6324 70.2666 23.5855 70.32 23.5855C70.4267 23.5855 70.5017 23.439 70.5017 23.2316C70.5017 23.1577 70.5487 23.0976 70.6065 23.0976C70.6787 23.0976 70.7108 23.0249 70.7108 22.862C70.7108 22.6847 70.7453 22.6173 70.8504 22.5896C70.9503 22.5635 70.9896 22.4945 70.9896 22.3453C70.9896 22.2245 71.0334 22.1202 71.094 22.0969C71.1674 22.0688 71.1987 21.9545 71.1987 21.7142C71.1987 21.4305 71.2223 21.3655 71.3379 21.3354C71.4659 21.3021 71.4775 21.2403 71.4775 20.5935C71.4775 20.0306 71.4984 19.8798 71.5818 19.8477C71.6673 19.8148 71.6866 19.6431 71.6866 18.9068C71.6866 18.1706 71.6673 17.9989 71.5818 17.966C71.5 17.9347 71.4775 17.7934 71.4775 17.312C71.4775 16.6387 71.4422 16.4774 71.2958 16.4774C71.2243 16.4774 71.1987 16.3755 71.1987 16.0943C71.1987 15.8002 71.1742 15.7111 71.094 15.7111C71.0237 15.7111 70.9896 15.6405 70.9896 15.4952C70.9896 15.3384 70.9515 15.2697 70.8504 15.2433C70.7453 15.216 70.7108 15.1482 70.7108 14.9712C70.7108 14.8079 70.6787 14.7353 70.6065 14.7353C70.5359 14.7353 70.5017 14.6651 70.5017 14.5199C70.5017 14.3626 70.464 14.2944 70.3625 14.2679C70.2851 14.2474 70.2229 14.1728 70.2229 14.1002C70.2229 14.028 70.1784 13.969 70.1242 13.969C70.0696 13.969 70.0038 13.8727 69.9782 13.7551C69.9525 13.6376 69.8871 13.5244 69.8333 13.5036C69.8061 13.4925 69.7825 13.4741 69.7652 13.4503C69.7479 13.4266 69.7376 13.3985 69.7354 13.3692C69.735 13.3431 69.7242 13.3182 69.7055 13.3C69.6868 13.2818 69.6616 13.2717 69.6355 13.2721C69.5805 13.2721 69.5155 13.2091 69.4915 13.1324C69.467 13.0558 69.402 12.9932 69.3474 12.9932C69.3203 12.9925 69.2946 12.9811 69.2759 12.9614C69.2572 12.9418 69.247 12.9156 69.2475 12.8885C69.2475 12.8307 69.1853 12.7842 69.1079 12.7842C69.0313 12.7842 68.9687 12.7384 68.9687 12.6827C68.9687 12.6221 68.8708 12.5631 68.7247 12.5354C68.5851 12.5093 68.4808 12.4484 68.4808 12.393C68.4807 12.3675 68.4705 12.343 68.4525 12.3249C68.4345 12.3068 68.41 12.2965 68.3845 12.2963C68.3315 12.2963 68.2718 12.2337 68.2517 12.1571C68.2256 12.0568 68.1566 12.0175 68.0078 12.0175C67.8589 12.0175 67.7899 11.9781 67.7638 11.8782C67.7377 11.7779 67.6687 11.739 67.5191 11.739C67.3987 11.739 67.2944 11.6949 67.2711 11.6343C67.2474 11.5733 67.1431 11.5296 67.0196 11.5296C66.9012 11.5296 66.7471 11.4686 66.6689 11.3903C66.5722 11.2937 66.4366 11.2511 66.2247 11.2511C66.0386 11.2511 65.8857 11.2102 65.8327 11.1464C65.7677 11.0678 65.5924 11.0421 65.1274 11.0421C64.6487 11.0421 64.5087 11.0204 64.5087 10.9462C64.5087 10.8936 64.4108 10.8306 64.2909 10.8066C64.0341 10.7552 51.7615 10.758 51.6339 10.8094M75.0014 10.8728C74.8899 10.9847 74.8237 35.2425 74.9344 35.531C74.9726 35.6309 75.8203 35.6413 83.8195 35.6413H92.662V30.7633H80.5367V25.5366H92.3835V23.0306C92.3835 20.624 92.3779 20.5213 92.2487 20.4519C92.1588 20.4042 90.182 20.3801 86.3251 20.3801H80.5367V15.9209L86.5819 15.9029L92.6275 15.8852L92.6455 13.3812C92.66 11.424 92.6447 10.8647 92.5761 10.821C92.3875 10.7014 75.1222 10.752 75.0014 10.8728M96.3556 23.2023V35.6413H99.1056C101.753 35.6413 101.858 35.6361 101.928 35.5065C101.976 35.4179 102 33.9381 102 31.1858V27.0002H105.554C108.667 27.0002 109.108 26.9874 109.108 26.8955C109.108 26.8105 109.224 26.7912 109.736 26.7912C110.27 26.7912 110.383 26.7703 110.502 26.6516C110.6 26.5533 110.734 26.5124 110.957 26.5124C111.174 26.5124 111.285 26.4795 111.313 26.408C111.338 26.3434 111.444 26.3033 111.59 26.3033C111.779 26.3033 111.826 26.276 111.826 26.1641C111.826 26.051 111.872 26.0245 112.07 26.0245C112.24 26.0245 112.314 25.9932 112.314 25.9202C112.314 25.8495 112.384 25.8154 112.529 25.8154C112.687 25.8154 112.755 25.7777 112.781 25.6762C112.802 25.5992 112.876 25.5366 112.949 25.5366C113.021 25.5366 113.081 25.5057 113.081 25.468C113.081 25.4303 113.19 25.3532 113.324 25.2975C113.458 25.2413 113.568 25.1626 113.568 25.1221C113.568 25.082 113.615 25.0491 113.673 25.0491C113.73 25.0491 113.777 25.0058 113.777 24.9524C113.777 24.8994 113.84 24.8397 113.917 24.8196C113.993 24.7995 114.056 24.7333 114.056 24.6724C114.056 24.611 114.103 24.5612 114.161 24.5612C114.218 24.5612 114.265 24.499 114.265 24.4216C114.265 24.343 114.311 24.2824 114.372 24.2824C114.43 24.2824 114.498 24.2274 114.523 24.1604C114.551 24.0892 114.599 24.0275 114.661 23.9827C114.711 23.9522 114.753 23.8503 114.753 23.7564C114.753 23.632 114.791 23.5855 114.892 23.5855C114.998 23.5855 115.032 23.5389 115.032 23.3933C115.032 23.2765 115.086 23.167 115.171 23.114C115.248 23.0659 115.31 22.984 115.31 22.9315C115.31 22.8789 115.357 22.7971 115.415 22.7493C115.474 22.7004 115.52 22.5483 115.52 22.4006C115.52 22.1968 115.55 22.1302 115.659 22.1021C115.775 22.0716 115.798 22.007 115.798 21.7105C115.798 21.4413 115.823 21.3555 115.903 21.3555C115.988 21.3555 116.007 21.2395 116.007 20.7284C116.007 20.226 116.027 20.1013 116.109 20.1013C116.342 20.1013 116.361 17.8705 116.129 17.7011C116.03 17.6289 116.007 17.5045 116.007 17.0447C116.007 16.587 115.987 16.4774 115.903 16.4774C115.823 16.4774 115.798 16.3916 115.798 16.1227C115.798 15.8262 115.775 15.7616 115.659 15.7312C115.55 15.7027 115.52 15.6361 115.52 15.4326C115.52 15.2846 115.474 15.1329 115.415 15.084C115.357 15.0362 115.31 14.9456 115.31 14.883C115.31 14.8204 115.248 14.7297 115.171 14.682C115.129 14.6522 115.095 14.6131 115.071 14.5679C115.047 14.5226 115.033 14.4724 115.032 14.4212C115.032 14.294 114.994 14.2474 114.892 14.2474C114.791 14.2474 114.753 14.2009 114.753 14.0773C114.753 13.9838 114.719 13.8867 114.679 13.8615C114.638 13.8366 114.576 13.7407 114.541 13.6484C114.506 13.5565 114.43 13.4811 114.371 13.4811C114.343 13.4812 114.316 13.4703 114.296 13.4506C114.277 13.431 114.265 13.4043 114.265 13.3764C114.265 13.3487 114.254 13.3222 114.234 13.3026C114.215 13.2831 114.188 13.2721 114.161 13.2721C114.103 13.2721 114.056 13.2219 114.056 13.1609C114.056 13.0999 113.993 13.0333 113.917 13.0133C113.84 12.9932 113.777 12.9334 113.777 12.8805C113.777 12.8549 113.767 12.8304 113.749 12.8124C113.731 12.7943 113.706 12.7842 113.681 12.7842C113.628 12.7842 113.568 12.7216 113.548 12.6446C113.538 12.6057 113.515 12.5712 113.484 12.5461C113.453 12.521 113.414 12.5067 113.374 12.5053C113.289 12.5007 113.208 12.4634 113.15 12.401C113.094 12.3393 113.016 12.3018 112.932 12.2963C112.848 12.2963 112.802 12.247 112.802 12.1571C112.802 12.0451 112.755 12.0175 112.566 12.0175C112.389 12.0175 112.321 11.9829 112.294 11.8782C112.267 11.7767 112.199 11.739 112.042 11.739C111.897 11.739 111.826 11.7045 111.826 11.6343C111.826 11.5613 111.752 11.5296 111.582 11.5296C111.421 11.5296 111.338 11.4971 111.338 11.4333C111.338 11.3266 111.134 11.2547 110.816 11.2499C110.7 11.2479 110.546 11.2006 110.471 11.1444C110.376 11.0722 110.154 11.0421 109.722 11.0421C109.246 11.0421 109.108 11.0204 109.108 10.9454C109.108 10.7721 108.859 10.7652 102.575 10.764L96.3556 10.7632V23.2023M118.772 10.809C118.746 10.8351 118.725 16.4329 118.725 23.2492V35.6417L126.722 35.6241L134.718 35.6064L134.736 33.1851L134.755 30.7633H124.37L124.352 20.7805L124.335 10.7981L121.577 10.7797C120.061 10.7697 118.798 10.7829 118.772 10.809M130.618 10.8098C130.535 10.8924 130.569 11.4513 130.66 11.5087C130.709 11.5396 130.787 11.6507 130.833 11.7563C130.879 11.8618 130.949 11.948 130.988 11.948C131.028 11.948 131.06 12.0106 131.06 12.0873C131.06 12.1647 131.106 12.2265 131.164 12.2265C131.222 12.2265 131.269 12.2887 131.269 12.3661C131.269 12.4427 131.331 12.5679 131.408 12.6446C131.485 12.7216 131.547 12.8311 131.547 12.8885C131.547 12.9463 131.592 12.9932 131.646 12.9932C131.701 12.9932 131.767 13.0895 131.792 13.2071C131.818 13.3246 131.883 13.4378 131.937 13.4582C131.964 13.4697 131.988 13.4886 132.005 13.5128C132.023 13.5369 132.033 13.5654 132.035 13.5951C132.035 13.6496 132.082 13.7126 132.14 13.7347C132.197 13.7567 132.244 13.8342 132.244 13.9072C132.244 13.9802 132.307 14.0934 132.384 14.1592C132.46 14.225 132.523 14.3185 132.523 14.3674C132.523 14.4164 132.585 14.4565 132.662 14.4565C132.775 14.4565 132.802 14.503 132.802 14.7004C132.802 14.8709 132.833 14.9444 132.906 14.9444C132.964 14.9444 133.011 15.0065 133.011 15.084C133.011 15.1767 133.057 15.2232 133.15 15.2232C133.263 15.2232 133.29 15.2697 133.29 15.4671C133.29 15.6373 133.321 15.7111 133.394 15.7111C133.451 15.7111 133.499 15.7532 133.499 15.8046C133.499 15.8563 133.561 15.955 133.638 16.0244C133.714 16.0939 133.777 16.2086 133.777 16.2792C133.777 16.3498 133.824 16.408 133.882 16.408C133.94 16.408 133.986 16.4698 133.986 16.5472C133.986 16.6239 134.049 16.7495 134.126 16.8261C134.202 16.9027 134.265 17.0122 134.265 17.07C134.265 17.1274 134.312 17.1743 134.37 17.1743C134.428 17.1743 134.474 17.2361 134.474 17.3136C134.474 17.3906 134.537 17.5158 134.614 17.5924C134.69 17.669 134.753 17.779 134.753 17.8364C134.753 17.8937 134.797 17.9411 134.852 17.9411C134.906 17.9411 134.972 18.035 134.997 18.1501C135.022 18.2649 135.087 18.3591 135.142 18.3591C135.196 18.3591 135.241 18.4217 135.241 18.4984C135.241 18.5758 135.287 18.638 135.345 18.638C135.403 18.638 135.45 18.6978 135.45 18.7716C135.45 18.979 135.525 19.1255 135.632 19.1255C135.685 19.1255 135.729 19.1885 135.729 19.2651C135.729 19.3425 135.775 19.4043 135.833 19.4043C135.89 19.4043 135.938 19.4645 135.938 19.5379C135.938 19.7458 136.013 19.8922 136.119 19.8922C136.173 19.8922 136.216 19.9392 136.216 19.9965C136.216 20.0543 136.263 20.1013 136.321 20.1013C136.391 20.1013 136.426 20.1715 136.426 20.3167C136.426 20.4736 136.463 20.5422 136.565 20.5687C136.642 20.5891 136.704 20.6638 136.704 20.7372C136.704 20.8098 136.767 20.9229 136.844 20.9883C136.92 21.0541 136.983 21.1637 136.983 21.2319C136.983 21.2997 137.03 21.3555 137.088 21.3555C137.146 21.3555 137.192 21.4177 137.192 21.4955C137.192 21.5725 137.254 21.6893 137.331 21.7551C137.408 21.8205 137.471 21.9156 137.471 21.9657C137.471 22.0159 137.518 22.0749 137.575 22.0969C137.633 22.119 137.68 22.2117 137.68 22.3031C137.68 22.3946 137.742 22.5086 137.819 22.5563C137.896 22.6045 137.959 22.6831 137.959 22.7313C137.959 22.7794 138.006 22.8191 138.063 22.8191C138.134 22.8191 138.168 22.8893 138.168 23.0346C138.168 23.1915 138.205 23.2601 138.307 23.2865C138.384 23.3066 138.446 23.3816 138.446 23.4542C138.446 23.5265 138.493 23.5855 138.551 23.5855C138.608 23.5855 138.655 23.6456 138.655 23.7191C138.655 23.9269 138.731 24.0733 138.837 24.0733C138.89 24.0733 138.934 24.1203 138.934 24.1781C138.934 24.2354 138.981 24.2824 139.039 24.2824C139.108 24.2824 139.143 24.3522 139.143 24.491C139.143 24.6238 139.194 24.7309 139.283 24.7863C139.359 24.8344 139.422 24.9095 139.422 24.9536C139.422 24.9977 139.469 25.0519 139.527 25.074C139.584 25.096 139.631 25.1968 139.631 25.2971C139.631 25.4214 139.675 25.4916 139.77 25.5165C139.908 25.5526 139.91 25.6116 139.91 30.5972V35.6413H145.554V30.4844C145.554 25.947 145.567 25.3275 145.659 25.3275C145.716 25.3275 145.764 25.2686 145.764 25.1964C145.764 25.1237 145.826 25.0491 145.903 25.0286C146.004 25.0022 146.042 24.9336 146.042 24.7767C146.042 24.6294 146.076 24.5612 146.149 24.5612C146.208 24.5612 146.276 24.5063 146.3 24.4392C146.325 24.3722 146.387 24.292 146.438 24.2615C146.488 24.231 146.53 24.1135 146.53 24.0003C146.53 23.841 146.562 23.7945 146.669 23.7945C146.746 23.7945 146.809 23.7516 146.809 23.6986C146.809 23.6456 146.856 23.5634 146.913 23.516C146.971 23.4683 147.018 23.3547 147.018 23.2633C147.018 23.1614 147.059 23.0976 147.124 23.0976C147.182 23.0976 147.259 23.0225 147.294 22.9303C147.329 22.8384 147.391 22.7421 147.431 22.7172C147.472 22.6919 147.506 22.5948 147.506 22.5014C147.506 22.3778 147.544 22.3312 147.645 22.3312C147.745 22.3312 147.784 22.2847 147.784 22.1655C147.784 22.0745 147.831 21.9609 147.889 21.9132C147.946 21.8654 147.993 21.7852 147.993 21.735C147.993 21.6849 148.056 21.6239 148.133 21.5994C148.23 21.5685 148.272 21.4939 148.272 21.3511C148.272 21.2158 148.307 21.1464 148.377 21.1464C148.434 21.1464 148.481 21.0875 148.481 21.0152C148.481 20.9426 148.543 20.8676 148.621 20.8475C148.722 20.821 148.76 20.7524 148.76 20.5956C148.76 20.4503 148.794 20.3801 148.865 20.3801C148.922 20.3801 148.969 20.3207 148.969 20.2489C148.969 20.1763 149.031 20.1012 149.108 20.0812C149.21 20.0543 149.248 19.9861 149.248 19.8288C149.248 19.684 149.282 19.6134 149.352 19.6134C149.379 19.6137 149.406 19.6031 149.425 19.584C149.445 19.5649 149.456 19.5388 149.457 19.5115C149.457 19.4553 149.519 19.3758 149.596 19.3345C149.637 19.3096 149.672 19.2748 149.696 19.2332C149.72 19.1917 149.734 19.1447 149.736 19.0966C149.736 18.9915 149.785 18.9197 149.875 18.8964C149.952 18.8763 150.014 18.8077 150.014 18.7439C150.014 18.6801 150.061 18.5806 150.119 18.5232C150.176 18.4659 150.223 18.362 150.223 18.2925C150.223 18.2231 150.286 18.1497 150.363 18.1297C150.464 18.1032 150.502 18.0346 150.502 17.8777C150.502 17.7324 150.536 17.6622 150.607 17.6622C150.664 17.6622 150.711 17.6225 150.711 17.5744C150.711 17.5262 150.774 17.4476 150.851 17.3994C150.939 17.3441 150.99 17.2369 150.99 17.1041C150.99 16.9653 151.025 16.8955 151.095 16.8955C151.152 16.8955 151.199 16.8506 151.199 16.796C151.199 16.741 151.261 16.676 151.338 16.6516C151.436 16.6207 151.478 16.5464 151.478 16.4032C151.478 16.268 151.513 16.1986 151.582 16.1986C151.64 16.1986 151.687 16.1368 151.687 16.0594C151.687 15.9827 151.731 15.9201 151.784 15.9201C151.89 15.9201 151.966 15.7737 151.966 15.5658C151.966 15.4924 152.013 15.4322 152.07 15.4322C152.128 15.4322 152.175 15.3705 152.175 15.293C152.175 15.2164 152.219 15.1534 152.273 15.1534C152.328 15.1534 152.393 15.0619 152.417 14.9504C152.442 14.8384 152.507 14.7297 152.562 14.7084C152.617 14.6872 152.662 14.6134 152.662 14.5439C152.662 14.4745 152.725 14.3726 152.802 14.3172C152.878 14.2619 152.941 14.1612 152.941 14.093C152.941 14.0248 152.988 13.969 153.046 13.969C153.119 13.969 153.15 13.8952 153.15 13.725C153.15 13.5276 153.177 13.4811 153.29 13.4811C153.382 13.4811 153.429 13.4346 153.429 13.3415C153.429 13.2648 153.473 13.2023 153.526 13.2023C153.633 13.2023 153.708 13.0558 153.708 12.848C153.708 12.7746 153.755 12.7144 153.812 12.7144C153.87 12.7144 153.917 12.6831 153.917 12.6446C153.917 12.6064 153.979 12.5122 154.056 12.4355C154.133 12.3589 154.196 12.2337 154.196 12.1571C154.196 12.0796 154.242 12.0175 154.3 12.0175C154.358 12.0175 154.405 11.9557 154.405 11.8782C154.405 11.8016 154.45 11.739 154.506 11.739C154.623 11.739 154.705 11.3919 154.671 11.0373L154.649 10.7981L151.6 10.7801C148.586 10.762 148.551 10.7632 148.551 10.9017C148.551 10.9955 148.505 11.0421 148.412 11.0421C148.319 11.0421 148.272 11.0882 148.272 11.1813C148.272 11.2587 148.225 11.3205 148.168 11.3205C148.099 11.3205 148.063 11.3895 148.063 11.5215C148.063 11.664 148.022 11.7334 147.924 11.7591C147.829 11.7835 147.784 11.8542 147.784 11.9757C147.784 12.0804 147.726 12.1924 147.645 12.2429C147.568 12.2907 147.506 12.3661 147.506 12.4102C147.506 12.4544 147.458 12.5085 147.401 12.5306C147.34 12.5539 147.297 12.6586 147.297 12.7818C147.297 12.9246 147.262 12.9932 147.19 12.9932C147.132 12.9932 147.055 13.0687 147.02 13.1605C146.985 13.2528 146.923 13.3487 146.883 13.374C146.842 13.3989 146.809 13.4923 146.809 13.5814C146.809 13.6849 146.758 13.7567 146.669 13.78C146.568 13.8065 146.53 13.8751 146.53 14.032C146.53 14.1772 146.496 14.2474 146.426 14.2474C146.368 14.2474 146.321 14.3064 146.321 14.3786C146.321 14.4513 146.259 14.5263 146.182 14.5463C146.089 14.5704 146.042 14.6414 146.042 14.7562C146.042 14.8517 145.995 14.9476 145.938 14.9696C145.88 14.9917 145.833 15.0663 145.833 15.1357C145.833 15.2052 145.77 15.3075 145.694 15.3624C145.617 15.4178 145.554 15.5189 145.554 15.5871C145.554 15.6553 145.507 15.7111 145.45 15.7111C145.377 15.7111 145.345 15.7845 145.345 15.955C145.345 16.1524 145.319 16.1986 145.206 16.1986C145.116 16.1986 145.067 16.2451 145.067 16.3306C145.067 16.4032 145.019 16.4806 144.962 16.5027C144.901 16.526 144.858 16.6307 144.858 16.7543C144.858 16.9188 144.827 16.9653 144.718 16.9653C144.605 16.9653 144.579 17.0118 144.579 17.2092C144.579 17.3798 144.547 17.4532 144.474 17.4532C144.447 17.4527 144.421 17.4629 144.401 17.4816C144.382 17.5003 144.37 17.526 144.37 17.5531C144.37 17.6081 144.307 17.6727 144.23 17.6971C144.134 17.7276 144.091 17.8027 144.091 17.9375C144.091 18.0751 144.049 18.1445 143.952 18.1702C143.875 18.1902 143.812 18.2588 143.812 18.3226C143.812 18.3864 143.765 18.4859 143.708 18.5433C143.647 18.6086 143.61 18.6928 143.603 18.782C143.603 18.8563 143.559 18.9164 143.506 18.9164C143.4 18.9164 143.324 19.0629 143.324 19.2707C143.324 19.3441 143.277 19.4043 143.22 19.4043C143.162 19.4043 143.115 19.4661 143.115 19.5436C143.115 19.6202 143.07 19.6832 143.014 19.6832C142.953 19.6832 142.894 19.7811 142.867 19.9271C142.817 20.1931 142.665 20.2541 142.607 20.0314C142.587 19.9548 142.521 19.8922 142.46 19.8922C142.388 19.8922 142.349 19.8312 142.349 19.7221C142.349 19.6286 142.315 19.5315 142.275 19.5062C142.234 19.481 142.172 19.3851 142.137 19.2932C142.102 19.2009 142.026 19.1255 141.967 19.1255C141.896 19.1255 141.861 19.0581 141.861 18.9213C141.861 18.7816 141.819 18.7034 141.728 18.6749C141.655 18.6516 141.577 18.5553 141.553 18.4611C141.529 18.3668 141.479 18.2893 141.442 18.2893C141.404 18.2893 141.373 18.2111 141.373 18.1152C141.373 17.9872 141.336 17.9411 141.234 17.9411C141.125 17.9411 141.095 17.8945 141.095 17.7296C141.095 17.6061 141.051 17.5017 140.99 17.4785C140.932 17.4564 140.885 17.379 140.885 17.3063C140.885 17.2209 140.836 17.1743 140.746 17.1743C140.633 17.1743 140.607 17.1278 140.607 16.9304C140.607 16.7663 140.574 16.6865 140.508 16.6865C140.453 16.6865 140.388 16.5926 140.363 16.4774C140.337 16.3627 140.272 16.2684 140.218 16.2684C140.163 16.2684 140.119 16.2058 140.119 16.1292C140.119 16.0517 140.072 15.9895 140.014 15.9895C139.945 15.9895 139.91 15.9201 139.91 15.7829C139.91 15.6477 139.862 15.5506 139.77 15.5021C139.693 15.4607 139.631 15.3949 139.631 15.3552C139.631 15.3155 139.584 15.236 139.527 15.1783C139.465 15.1108 139.428 15.0242 139.422 14.9327C139.421 14.892 139.407 14.8526 139.382 14.8205C139.357 14.7885 139.322 14.7656 139.283 14.7554C139.184 14.7297 139.143 14.6603 139.143 14.5159C139.143 14.4043 139.099 14.296 139.046 14.2755C138.992 14.2547 138.932 14.1772 138.913 14.1034C138.893 14.0292 138.828 13.969 138.766 13.969C138.69 13.969 138.655 13.9048 138.655 13.7632C138.655 13.65 138.615 13.5325 138.567 13.502C138.518 13.4711 138.44 13.3599 138.394 13.2544C138.348 13.1493 138.278 13.063 138.239 13.063C138.2 13.063 138.168 13 138.168 12.9234C138.168 12.8307 138.121 12.7842 138.028 12.7842C137.915 12.7842 137.889 12.7376 137.889 12.5402C137.889 12.3697 137.857 12.2963 137.784 12.2963C137.726 12.2963 137.68 12.2345 137.68 12.1571C137.68 12.064 137.633 12.0175 137.54 12.0175C137.427 12.0175 137.401 11.9713 137.401 11.7735C137.401 11.6034 137.37 11.5296 137.297 11.5296C137.238 11.5296 137.192 11.4678 137.192 11.3903C137.192 11.3137 137.134 11.1937 137.065 11.1239C136.994 11.0537 136.917 10.9438 136.893 10.88C136.846 10.7592 130.737 10.691 130.618 10.8098M63.6228 16.0594C63.6493 16.1597 63.7179 16.1986 63.8676 16.1986C63.9883 16.1986 64.0926 16.2427 64.1159 16.3033C64.1392 16.3643 64.2435 16.408 64.3671 16.408C64.5139 16.408 64.5785 16.4417 64.5785 16.5187C64.5785 16.5801 64.6411 16.6463 64.7177 16.6664C64.7944 16.6865 64.857 16.7462 64.857 16.7992C64.857 16.8522 64.9007 16.8955 64.9537 16.8955C65.0066 16.8955 65.0664 16.9585 65.0865 17.0351C65.1065 17.1118 65.1727 17.1743 65.2337 17.1743C65.2963 17.1743 65.3449 17.2321 65.3449 17.3063C65.3449 17.379 65.3922 17.4564 65.4496 17.4785C65.519 17.5049 65.5539 17.6145 65.5539 17.8059C65.5539 18.0346 65.5824 18.1008 65.6935 18.1297C65.8219 18.1634 65.8327 18.2247 65.8327 18.9164C65.8327 19.6081 65.8219 19.6695 65.6935 19.7032C65.5796 19.7329 65.5539 19.7983 65.5539 20.0599C65.5539 20.2978 65.5274 20.3801 65.4496 20.3801C65.3914 20.3801 65.3449 20.4419 65.3449 20.5193C65.3449 20.596 65.3104 20.6585 65.2678 20.6585C65.1607 20.6585 64.8598 20.953 64.8582 21.0594C64.8578 21.1075 64.7944 21.1464 64.7177 21.1464C64.6403 21.1464 64.5785 21.193 64.5785 21.2511C64.5785 21.3085 64.5384 21.3555 64.4895 21.3555C64.4401 21.3555 64.355 21.4185 64.2997 21.4951C64.2307 21.591 64.1191 21.6343 63.9434 21.6343C63.7801 21.6343 63.673 21.672 63.6473 21.739C63.6124 21.8297 63.1863 21.8433 60.3994 21.8433H57.1917V15.9201H60.389C63.5281 15.9201 63.5871 15.9225 63.6228 16.0594M108.202 16.0594C108.254 16.156 108.348 16.1986 108.51 16.1986C108.638 16.1986 108.782 16.2459 108.83 16.3033C108.877 16.3607 108.943 16.408 108.975 16.408C109.007 16.408 109.144 16.5175 109.278 16.6516C109.412 16.786 109.554 16.8955 109.593 16.8955C109.633 16.8955 109.666 16.9436 109.666 17.0022C109.666 17.0612 109.709 17.1258 109.763 17.1467C109.817 17.1671 109.877 17.2446 109.896 17.3184C109.916 17.3926 109.981 17.4532 110.042 17.4532C110.119 17.4532 110.154 17.5174 110.154 17.6642C110.154 17.7878 110.197 17.8921 110.258 17.9158C110.344 17.9487 110.363 18.1276 110.363 18.9241C110.363 19.7381 110.346 19.8922 110.258 19.8922C110.185 19.8922 110.154 19.9656 110.154 20.1362C110.154 20.3087 110.122 20.3801 110.047 20.3801C109.988 20.3801 109.92 20.4307 109.897 20.4928C109.837 20.6473 109.356 21.1464 109.266 21.1464C109.226 21.1464 109.175 21.1934 109.153 21.2511C109.14 21.2805 109.12 21.3057 109.094 21.3242C109.068 21.3426 109.037 21.3534 109.006 21.3555C108.946 21.3555 108.899 21.4165 108.899 21.4951C108.899 21.6159 108.853 21.6343 108.551 21.6343C108.288 21.6343 108.202 21.66 108.202 21.739C108.202 21.8301 107.811 21.8433 105.101 21.8433H102V15.9201H105.064C108.056 15.9201 108.129 15.9233 108.202 16.0594" fill="#7A8487"/>
<path fill-rule="evenodd" clip-rule="evenodd" d="M42.3496 5.35368C42.3496 5.3605 42.4122 5.42029 42.4888 5.48569C42.5955 5.57716 42.628 5.58278 42.628 5.50936C42.628 5.4568 42.5654 5.39742 42.4888 5.37736C42.4122 5.35729 42.3496 5.34646 42.3496 5.35368ZM43.743 7.7237C43.743 7.78107 43.7747 7.84767 43.8128 7.87134C43.8513 7.89502 43.8826 7.86733 43.8826 7.80996C43.8826 7.75218 43.8513 7.68598 43.8128 7.66231C43.7747 7.63864 43.743 7.66632 43.743 7.7237ZM36.1246 11.0225C36.0982 11.0655 36.1258 11.1501 36.1864 11.2107C36.3172 11.3415 36.4031 11.3584 36.3048 11.2336C36.2618 11.1764 36.2279 11.113 36.2045 11.0454C36.1828 10.9764 36.1575 10.9692 36.1246 11.0225ZM40.7888 12.6158C40.7627 12.6836 40.7784 12.7157 40.8294 12.6984C40.9337 12.6639 40.991 12.5054 40.8992 12.5054C40.8618 12.5054 40.8121 12.5552 40.7888 12.6158ZM24.8756 17.8962C24.7893 17.9392 24.7187 17.999 24.7187 18.0299C24.7187 18.0969 24.9723 17.9685 25.0325 17.871C25.0562 17.8329 25.0658 17.8056 25.0538 17.8104C25.0421 17.8148 24.9619 17.8537 24.8756 17.8962M23.574 19.3049C23.4232 19.4554 23.4368 19.4927 23.6037 19.3884C23.6804 19.3402 23.743 19.2772 23.743 19.2484C23.743 19.1681 23.6944 19.1842 23.574 19.3049ZM26.5054 29.6135C26.5274 29.6709 26.5916 29.7182 26.6474 29.7182C26.7361 29.7182 26.7357 29.7042 26.645 29.6135C26.5876 29.5561 26.5238 29.5092 26.503 29.5092C26.4821 29.5092 26.4833 29.5561 26.5054 29.6135ZM11.7396 30.6033C11.8259 30.6202 11.9671 30.6202 12.0534 30.6033C12.1393 30.5869 12.069 30.5732 11.8965 30.5732C11.724 30.5732 11.6534 30.5869 11.7396 30.6033M9.96343 30.6739C10.0694 30.69 10.2262 30.6896 10.3121 30.6731C10.3976 30.6567 10.3109 30.6434 10.1195 30.6438C9.92773 30.6446 9.85751 30.6579 9.96343 30.6739M36.2442 34.0735C36.2442 34.5718 36.2554 34.7664 36.2687 34.506C36.2823 34.246 36.2823 33.8384 36.2687 33.6C36.255 33.3621 36.2442 33.5752 36.2442 34.0735M36.2478 41.2164C36.2478 42.3856 36.2574 42.8634 36.2691 42.2792C36.2807 41.6947 36.2807 40.7381 36.2691 40.1536C36.2574 39.569 36.2478 40.0472 36.2478 41.2164ZM32.6709 40.095C32.5935 40.1439 32.6023 40.1708 32.7163 40.2322C32.8398 40.298 32.8539 40.29 32.8222 40.17C32.8025 40.0938 32.7821 40.032 32.7768 40.0328C32.7403 40.0514 32.7049 40.0721 32.6709 40.095M62.0186 41.3384C63.0823 41.3492 64.8224 41.3492 65.886 41.3384C66.9496 41.3275 66.0794 41.3187 63.9525 41.3187C61.8252 41.3187 60.955 41.3275 62.0186 41.3384M81.8445 41.3384C82.4287 41.35 83.3852 41.35 83.9698 41.3384C84.5544 41.3263 84.0761 41.3171 82.907 41.3171C81.7382 41.3171 81.26 41.3263 81.8445 41.3384ZM90.872 41.338C91.1709 41.3512 91.6412 41.3508 91.9172 41.3376C92.1932 41.3247 91.9489 41.3139 91.3739 41.3139C90.799 41.3139 90.5731 41.3247 90.872 41.338M99.022 41.338C99.3193 41.3508 99.8052 41.3508 100.102 41.338C100.399 41.3247 100.156 41.3143 99.5621 41.3143C98.9683 41.3143 98.7251 41.3247 99.022 41.338ZM76.2868 41.6152C76.2868 41.7027 76.4862 41.8768 76.5328 41.8299C76.5512 41.8114 76.5035 41.7392 76.4269 41.6698C76.3498 41.6 76.2868 41.5755 76.2868 41.6152ZM89.9785 46.5823C89.9785 49.246 89.9869 50.3358 89.9978 49.0037C90.0082 47.672 90.0082 45.4926 89.9978 44.1606C89.9869 42.8289 89.9785 43.9186 89.9785 46.5823ZM68.1388 42.9802C68.136 43.0496 68.1055 43.0889 68.071 43.0676C68.0369 43.0464 67.9908 43.0761 67.9687 43.133C67.9467 43.1904 67.9555 43.2374 67.988 43.2374C68.0879 43.2374 68.2183 43.0379 68.1806 42.9437C68.1585 42.8887 68.1425 42.9031 68.1388 42.9802M74.2908 43.1326C74.3481 43.1904 74.4123 43.2374 74.4332 43.2374C74.4537 43.2374 74.4525 43.1904 74.4304 43.1326C74.4083 43.0753 74.3445 43.0283 74.2884 43.0283C74.1997 43.0283 74.2001 43.042 74.2908 43.1326M62.87 47.3487C62.87 49.5911 62.8788 50.5083 62.8897 49.3873C62.9005 48.0284 62.9005 46.6694 62.8897 45.3105C62.8788 44.1894 62.87 45.1066 62.87 47.3487ZM54.196 44.8234C54.196 44.8523 54.259 44.9153 54.3356 44.9634C54.4881 45.0585 54.5246 44.9871 54.3914 44.8539C54.2971 44.7596 54.196 44.7439 54.196 44.8234M76.7755 45.4689C76.8618 45.6302 76.914 45.6459 76.914 45.5095C76.914 45.4561 76.8662 45.3943 76.808 45.3718C76.7214 45.3385 76.7153 45.3566 76.7755 45.4689ZM86.0365 45.4529C85.8399 45.6824 85.8094 45.7827 85.9847 45.6234C86.0798 45.5367 86.1737 45.4818 86.1934 45.5014C86.213 45.5211 86.2287 45.4898 86.2287 45.4324C86.2287 45.294 86.1673 45.3004 86.0365 45.4529ZM52.8026 46.7902C52.8026 46.8207 52.8519 46.8652 52.9125 46.8885C53.0694 46.9486 53.0963 46.9414 53.0658 46.8495C53.0349 46.7573 52.8026 46.7047 52.8026 46.7902ZM86.8193 47.5601C86.7286 47.6355 86.6873 47.6973 86.727 47.6973C86.7976 47.6973 87.0187 47.5083 87.0187 47.4482C87.0187 47.4008 86.9938 47.4149 86.8193 47.5601ZM83.0639 47.9577C83.246 47.9718 83.5437 47.9718 83.7259 47.9577C83.908 47.9433 83.7592 47.9312 83.3949 47.9312C83.031 47.9312 82.8817 47.9433 83.0639 47.9577M51.6491 49.0153C51.6707 49.0502 51.6491 49.0932 51.6009 49.1104C51.5528 49.1277 51.5319 49.1618 51.5544 49.1863C51.5769 49.2111 51.6523 49.1682 51.7221 49.0916C51.8388 48.962 51.8396 48.9515 51.7289 48.9515C51.6635 48.9515 51.6274 48.9804 51.6491 49.0153M72.1755 49.6136C72.2229 49.6709 72.2935 49.7183 72.3316 49.7183C72.3705 49.7183 72.3633 49.6717 72.3148 49.6136C72.267 49.5562 72.1968 49.5092 72.1583 49.5092C72.1194 49.5092 72.127 49.5554 72.1755 49.6136M73.656 49.9751C73.7234 49.9927 73.833 49.9927 73.9 49.9751C73.967 49.9578 73.9124 49.9434 73.778 49.9434C73.644 49.9434 73.589 49.9578 73.656 49.9751ZM82.5587 51.4548C82.5587 51.4897 82.5387 51.5759 82.5146 51.6461C82.4757 51.7585 82.4837 51.7569 82.582 51.6345C82.7112 51.4728 82.7272 51.3906 82.6285 51.3906C82.59 51.3906 82.5587 51.4195 82.5587 51.4548Z" fill="#7A8487"/>
<path fill-rule="evenodd" clip-rule="evenodd" d="M11.7438 30.6732C11.8301 30.69 11.9713 30.69 12.0576 30.6732C12.1435 30.6567 12.0732 30.6431 11.9007 30.6431C11.7282 30.6431 11.6576 30.6567 11.7438 30.6732M68.2313 42.2965C68.2317 42.6031 68.2438 42.7198 68.2586 42.5561C68.2733 42.3705 68.2732 42.184 68.2582 41.9984C68.243 41.856 68.2309 41.99 68.2313 42.2965ZM80.3658 46.5824C80.3658 49.2461 80.3747 50.3358 80.3851 49.0037C80.3955 47.6721 80.3955 45.4927 80.3851 44.1606C80.3747 42.8289 80.3658 43.9187 80.3658 46.5824ZM82.7314 44.6657C82.7314 45.4325 82.7415 45.7554 82.7543 45.3839C82.7667 45.0124 82.7667 44.3849 82.7543 43.9901C82.7419 43.5953 82.7314 43.8994 82.7314 44.6657ZM82.7326 49.6834C82.7322 50.6415 82.7423 51.0431 82.7543 50.5757C82.7663 50.1087 82.7663 49.3247 82.7543 48.8336C82.7423 48.3429 82.7326 48.7253 82.7326 49.6834" fill="#7A8487"/>
<path fill-rule="evenodd" clip-rule="evenodd" d="M35.6636 6.75621C35.5926 6.84167 35.5974 6.86053 35.6897 6.86053C35.7519 6.86053 35.8029 6.81358 35.8029 6.75621C35.8029 6.69883 35.7912 6.65149 35.7768 6.65149C35.7623 6.65149 35.7114 6.69883 35.6636 6.75621ZM34.8624 30.1365C34.9322 30.2132 35.004 30.2613 35.0225 30.2429C35.0694 30.1959 34.8957 29.9965 34.8078 29.9965C34.7685 29.9965 34.793 30.0595 34.8624 30.1365ZM87.0576 41.7041C87.127 41.7808 87.1956 41.8434 87.2101 41.8434C87.2245 41.8434 87.2029 41.7808 87.1619 41.7041C87.121 41.6275 87.0524 41.5645 87.0095 41.5645C86.9665 41.5645 86.9882 41.6275 87.0576 41.7041ZM100.993 46.5822C100.993 49.2459 101.002 50.3356 101.012 49.0036C101.023 47.6719 101.023 45.4925 101.012 44.1604C101.002 42.8288 100.993 43.9185 100.993 46.5822ZM88.4165 43.6834C88.4165 43.7492 88.4458 43.7849 88.4819 43.7624C88.5177 43.7403 88.5794 43.7777 88.6192 43.8455C88.6585 43.9133 88.6918 43.9345 88.693 43.8924C88.6942 43.8507 88.6324 43.7596 88.5558 43.6902C88.4266 43.5734 88.4165 43.573 88.4165 43.6834ZM68.2969 46.5473C68.2973 46.7391 68.311 46.8089 68.327 46.703C68.3431 46.597 68.3427 46.4406 68.3258 46.3547C68.3094 46.2688 68.2961 46.3555 68.2969 46.5473ZM95.915 46.4137C95.8889 46.4815 95.9045 46.5136 95.9555 46.4963C96.0598 46.4618 96.1172 46.3033 96.0253 46.3033C95.988 46.3033 95.9382 46.3531 95.915 46.4137ZM56.9877 48.5201C56.9877 48.5574 57.0375 48.6071 57.0981 48.6304C57.1659 48.6565 57.198 48.6408 57.1807 48.5899C57.1462 48.486 56.9877 48.4286 56.9877 48.5201ZM87.4536 49.5829C87.4646 49.6105 87.4811 49.6355 87.502 49.6565C87.523 49.6774 87.548 49.6939 87.5756 49.7049C87.6281 49.7225 87.6542 49.6961 87.6366 49.6439C87.6257 49.6163 87.6092 49.5912 87.5882 49.5703C87.5673 49.5493 87.5422 49.5328 87.5146 49.5219C87.4624 49.5047 87.4364 49.5308 87.4536 49.5829ZM82.6177 51.654L82.4985 51.9132L82.635 51.7487C82.7104 51.658 82.7718 51.5405 82.7718 51.4871C82.7718 51.3439 82.7493 51.3683 82.6177 51.654M80.3328 51.573C80.3328 51.6111 80.3789 51.7034 80.4351 51.778C80.4912 51.8522 80.5374 51.8819 80.5374 51.8434C80.5374 51.8053 80.4912 51.713 80.4351 51.6384C80.3789 51.5641 80.3328 51.5345 80.3328 51.573Z" fill="#7A8487"/>
</svg>
