<svg xmlns:xlink="http://www.w3.org/1999/xlink" xmlns="http://www.w3.org/2000/svg" width="113" height="53" viewBox="0 0 113 53" fill="none">
<g clip-path="url(#clip0_105_1673)">
<path d="M98.5671 24.8756C98.7962 21.2095 99.796 19.5015 101.671 19.5015C103.525 19.5015 104.483 21.2512 104.608 24.8756H98.5671ZM112.294 27.0627C112.294 22.98 111.398 19.7306 109.649 17.4601C107.857 15.148 105.191 13.9607 101.796 13.9607C94.8385 13.9607 90.5059 19.1057 90.5059 27.3543C90.5059 31.9786 91.6516 35.4363 93.9428 37.6443C95.9842 39.6231 98.9212 40.623 102.712 40.623C106.212 40.623 109.44 39.7898 111.482 38.4358L110.586 32.8326C108.565 33.9157 106.232 34.5198 103.587 34.5198C102.004 34.5198 100.921 34.1865 100.129 33.4991C99.2753 32.7701 98.7754 31.5828 98.6087 29.8956H112.169C112.231 29.4998 112.294 27.6459 112.294 27.0627ZM79.5494 32.6035C78.8828 33.8532 77.8622 34.5198 76.6749 34.5198C75.8417 34.5198 75.1335 34.3532 74.4669 34.0199V21.8136C75.8625 20.3555 77.1123 20.1888 77.5706 20.1888C79.6535 20.1888 80.6742 22.4385 80.6742 26.8127C80.6742 29.3332 80.3201 31.2912 79.5494 32.6035ZM86.3608 16.7727C84.9027 14.8981 82.903 13.9607 80.3201 13.9607C77.9455 13.9607 75.8625 14.9605 73.9253 17.0227L73.4879 14.4398H66.3016V49.6215L74.4877 48.2675V40.0189C75.7375 40.4147 77.029 40.623 78.1746 40.623C80.216 40.623 83.1946 40.1022 85.5067 37.5818C87.7147 35.1655 88.8395 31.437 88.8395 26.5211C88.8187 22.1677 88.0063 18.8766 86.3608 16.7727ZM54.8452 14.4606H63.0521V40.1439H54.8452V14.4606ZM58.9695 11.9194C61.3441 11.9194 63.2604 9.9822 63.2604 7.58677C63.2604 5.1705 61.3441 3.25415 58.9695 3.25415C56.5532 3.25415 54.6369 5.1705 54.6369 7.58677C54.6577 9.96137 56.574 11.9194 58.9695 11.9194ZM51.3249 14.1065C49.0128 14.1065 47.1589 15.3147 46.4507 17.5018L45.9508 14.4606H38.7853V40.1439H46.9715V23.48C47.9921 22.2302 49.4502 21.7719 51.4291 21.7719C51.8665 21.7719 52.3247 21.7719 52.8871 21.8761V14.294C52.3039 14.169 51.804 14.1065 51.3249 14.1065ZM35.6192 20.5221L36.619 14.4398H31.3907V7.08685L24.371 8.25332L23.3504 14.4606L20.8716 14.8564L19.9551 20.5221H23.3504V32.4368C23.3504 35.5405 24.1419 37.6859 25.7666 38.9982C27.1206 40.0814 29.0578 40.623 31.8073 40.623C33.9111 40.623 35.2026 40.2688 36.0983 40.0189V33.5825C35.5983 33.7074 34.4735 33.9366 33.7237 33.9366C32.0989 33.9366 31.4115 33.1034 31.4115 31.2287V20.5221H35.6192ZM12.1856 24.1257C9.7693 23.23 8.45701 22.5426 8.45701 21.4595C8.45701 20.543 9.20689 20.0014 10.5608 20.0014C13.0396 20.0014 15.5808 20.9595 17.3305 21.8136L18.3304 15.7104C16.9348 15.0439 14.1019 13.9607 10.1859 13.9607C7.41552 13.9607 5.1034 14.6898 3.45784 16.0437C1.72896 17.4601 0.833278 19.5015 0.833278 21.9802C0.833278 26.4586 3.56199 28.375 8.01959 29.9997C10.8941 31.0204 11.8523 31.7494 11.8523 32.8742C11.8523 33.9574 10.9358 34.5823 9.24855 34.5823C7.16556 34.5823 3.72863 33.5616 1.49983 32.2493L0.5 38.415C2.41635 39.4981 5.97826 40.623 9.66515 40.623C12.6022 40.623 15.0393 39.9356 16.6848 38.6025C18.5387 37.1444 19.4969 34.9989 19.4969 32.2285C19.4969 27.6459 16.7056 25.7296 12.1856 24.1257Z" fill="#7A8487"/>
</g>
<defs>
<clipPath id="clip0_105_1673">
<rect width="112.481" height="52.0747" fill="white" transform="translate(0.296875 0.233887)"/>
</clipPath>
</defs>
</svg>