<svg xmlns:xlink="http://www.w3.org/1999/xlink" xmlns="http://www.w3.org/2000/svg" width="219" height="37" viewBox="0 0 219 37" fill="none">
<g clip-path="url(#clip0_105_1691)">
<path fill-rule="evenodd" clip-rule="evenodd" d="M26.5979 34.5292C23.7213 32.72 21.6022 26.4765 21.6022 19.0583C21.6022 18.7861 21.6039 18.5178 21.61 18.2495L21.6135 18.2534C13.6128 16.9908 7.83217 13.5318 7.68412 9.44146L7.66064 9.48862C5.70303 11.9315 4.58564 14.756 4.58564 17.7656C4.58564 26.6214 14.2667 33.8776 26.5461 34.5194L26.5979 34.5292ZM0.886719 18.4117C0.886719 8.50259 13.1672 0.468384 28.317 0.468384C43.4664 0.468384 55.7473 8.50259 55.7473 18.4117C55.7473 28.3208 43.4661 36.3553 28.317 36.3553C13.1672 36.3553 0.886719 28.3206 0.886719 18.4117ZM28.317 3.05797C31.2416 3.05797 33.7292 7.51264 34.6507 13.7283L34.6542 13.7189C40.3437 12.8296 44.3274 10.7781 44.3274 8.39083C44.3274 5.18675 37.1585 2.59236 28.317 2.59236C19.4748 2.59236 12.3065 5.18697 12.3065 8.39083C12.3065 10.7781 16.2896 12.8296 21.9798 13.7189L21.9833 13.7283C22.9048 7.51286 25.3931 3.05797 28.317 3.05797ZM30.0874 34.5192C42.3668 33.8776 52.0492 26.6212 52.0492 17.7653C52.0492 14.756 50.9305 11.9315 48.9731 9.4884L48.9492 9.44125C48.8012 13.5316 43.022 16.9906 35.0205 18.2532L35.024 18.2493C35.0294 18.5176 35.0322 18.7859 35.0322 19.0581C35.0322 26.4763 32.9116 32.7198 30.0368 34.529L30.0874 34.5192ZM28.317 14.1902C29.6272 14.1902 30.9009 14.1341 32.1196 14.0262L32.1179 14.0282C31.5113 10.0437 30.0383 7.2317 28.317 7.2317C26.5957 7.2317 25.1229 10.0437 24.5155 14.0282L24.5139 14.0262C25.7326 14.1341 27.0068 14.1902 28.317 14.1902ZM28.317 28.9454C30.5187 28.9454 32.3148 24.3444 32.4107 18.5737L32.4224 18.5778C31.0953 18.7012 29.7224 18.7656 28.3172 18.7656C26.9107 18.7656 25.5392 18.7012 24.212 18.5778L24.2244 18.5737C24.3187 24.3442 26.1144 28.9454 28.317 28.9454Z" fill="#7A8487"/>
<path fill-rule="evenodd" clip-rule="evenodd" d="M140.855 18.4117C140.855 10.8378 146.971 4.69775 154.512 4.69775C162.057 4.69775 168.172 10.8376 168.172 18.4117C168.172 25.9864 162.057 32.1256 154.512 32.1256C146.971 32.1256 140.855 25.9864 140.855 18.4117ZM154.512 27.0968C158.725 27.0968 162.14 23.208 162.14 18.4117C162.14 13.6156 158.725 9.72631 154.512 9.72631C150.302 9.72631 146.888 13.6156 146.888 18.4117C146.888 23.2078 150.302 27.0968 154.512 27.0968Z" fill="#7A8487"/>
<path fill-rule="evenodd" clip-rule="evenodd" d="M183.673 10.4118V31.5031H177.919V10.4118H177.938H169.891V5.64343H191.7V10.4118H183.692H183.673Z" fill="#7A8487"/>
<path fill-rule="evenodd" clip-rule="evenodd" d="M198.656 25.6847L198.65 25.6902L196.443 31.5031H189.723L200.347 5.64319H203.93H207.509L218.134 31.5031H211.413L209.205 25.6902L209.2 25.6847H203.93H198.656V25.6847ZM203.929 21.3202H207.55L207.547 21.3213L203.954 11.8564H203.904L200.308 21.3213L200.307 21.3202H203.929Z" fill="#7A8487"/>
<path fill-rule="evenodd" clip-rule="evenodd" d="M77.5878 10.4118V31.5031H71.8332V10.4118H71.8528H63.8047V5.64343H85.6154V10.4118H77.6078H77.5878Z" fill="#7A8487"/>
<path fill-rule="evenodd" clip-rule="evenodd" d="M87.0938 18.4117C87.0938 10.8378 93.2094 4.69775 100.753 4.69775C108.296 4.69775 114.411 10.8376 114.411 18.4117C114.411 25.9864 108.296 32.1256 100.753 32.1256C93.2094 32.1256 87.0938 25.9864 87.0938 18.4117ZM100.753 27.0968C104.964 27.0968 108.379 23.208 108.379 18.4117C108.379 13.6156 104.964 9.72631 100.753 9.72631C96.5416 9.72631 93.1266 13.6156 93.1266 18.4117C93.1266 23.2078 96.5416 27.0968 100.753 27.0968Z" fill="#7A8487"/>
<path fill-rule="evenodd" clip-rule="evenodd" d="M127.63 31.5031H130.548V21.8046V21.6837L140.587 5.64343H133.868L127.63 16.5128L121.393 5.64343H114.672L124.712 21.6837V21.8046V31.5031H127.63Z" fill="#7A8487"/>
</g>
<defs>
<clipPath id="clip0_105_1691">
<rect width="217.609" height="36.0181" fill="white" transform="translate(0.730469 0.374023)"/>
</clipPath>
</defs>
</svg>